start_ticks,start_secs,dur_ticks,dur_secs,pitch,fullNoteOctave,velocity,part,channel
1680,1.5328495,455,0.41514673958333326,51,D3.25#,49,2,0
2160,1.9708065,227,0.2071171645833333,54,F3.5#,49,2,0
2400,2.189785,227,0.2071171645833333,58,A3.833333333333333#,49,2,0
2640,2.4087635,227,0.2071171645833333,66,F4.5#,49,2,0
2880,2.627742,683,0.6231763145833332,63,D4.25#,49,2,0
3600,3.2846775,455,0.4151467395833335,56,G3.666666666666667#,49,2,0
3600,3.2846775,455,0.4151467395833335,61,C4.083333333333333#,49,2,0
3600,3.2846775,455,0.4151467395833335,65,F4.416666666666667,49,2,0
4080,3.7226345,227,0.2071171645833333,63,D4.25#,49,2,0
4320,3.941613,455,0.41514673958333304,61,C4.083333333333333#,49,2,0
4800,4.37957,455,0.41514673958333304,61,C4.083333333333333#,49,2,0
5520,5.0365055,455,0.41514673958333304,51,D3.25#,49,2,0
6000,5.4744625,227,0.20711716458333376,54,F3.5#,49,2,0
6240,5.693441,227,0.20711716458333376,58,A3.833333333333333#,49,2,0
6480,5.9124195,227,0.20711716458333376,66,F4.5#,49,2,0
6720,6.131398,683,0.6231763145833332,63,D4.25#,49,2,0
7440,6.7883335,455,0.41514673958333304,56,G3.666666666666667#,49,2,0
7440,6.7883335,455,0.41514673958333304,61,C4.083333333333333#,49,2,0
7440,6.7883335,455,0.41514673958333304,65,F4.416666666666667,49,2,0
7920,7.2262905,227,0.20711716458333376,63,D4.25#,49,2,0
8160,7.445269,911,0.8312058895833334,61,C4.083333333333333#,49,2,0
9360,8.5401615,455,0.415146739583334,51,D3.25#,49,2,0
9840,8.9781185,227,0.20711716458333285,54,F3.5#,49,2,0
10080,9.197097,227,0.20711716458333285,58,A3.833333333333333#,49,2,0
10320,9.4160755,227,0.20711716458333285,66,F4.5#,49,2,0
10560,9.635054,683,0.6231763145833332,63,D4.25#,49,2,0
11280,10.2919895,455,0.415146739583334,56,G3.666666666666667#,49,2,0
11280,10.2919895,455,0.415146739583334,61,C4.083333333333333#,49,2,0
11280,10.2919895,455,0.415146739583334,65,F4.416666666666667,49,2,0
11760,10.7299465,227,0.20711716458333285,63,D4.25#,49,2,0
12000,10.948925,455,0.415146739583334,61,C4.083333333333333#,49,2,0
12480,11.386882,455,0.415146739583334,61,C4.083333333333333#,49,2,0
13200,12.0438175,455,0.415146739583334,51,D3.25#,49,2,0
13680,12.4817745,227,0.20711716458333285,54,F3.5#,49,2,0
13920,12.700753,227,0.20711716458333285,58,A3.833333333333333#,49,2,0
14160,12.9197315,227,0.20711716458333285,66,F4.5#,49,2,0
14400,13.13871,683,0.6231763145833332,63,D4.25#,49,2,0
15120,13.7956455,455,0.415146739583334,56,G3.666666666666667#,49,2,0
15120,13.7956455,455,0.415146739583334,61,C4.083333333333333#,49,2,0
15120,13.7956455,455,0.415146739583334,65,F4.416666666666667,49,2,0
15600,14.2336025,227,0.20711716458333285,63,D4.25#,49,2,0
15840,14.452581,455,0.415146739583334,61,C4.083333333333333#,49,2,0
16320,14.890538,911,0.8312058895833324,61,C4.083333333333333#,49,2,0
17280,15.766452,227,0.20711716458333285,51,D3.25#,80,2,0
17520,15.9854305,239,0.2180660895833336,51,D3.25#,96,2,0
17520,15.9854305,239,0.2180660895833336,58,A3.833333333333333#,96,2,0
17760,16.204409,479,0.4370445895833336,51,D3.25#,96,2,0
17760,16.204409,479,0.4370445895833336,58,A3.833333333333333#,96,2,0
18240,16.642366,479,0.4370445895833336,51,D3.25#,96,2,0
18240,16.642366,479,0.4370445895833336,58,A3.833333333333333#,96,2,0
18960,17.2993015,239,0.2180660895833336,49,C3.083333333333333#,96,2,0
18960,17.2993015,239,0.2180660895833336,56,G3.666666666666667#,96,2,0
19200,17.51828,479,0.4370445895833336,49,C3.083333333333333#,96,2,0
19200,17.51828,479,0.4370445895833336,56,G3.666666666666667#,96,2,0
19680,17.956237,479,0.4370445895833336,49,C3.083333333333333#,96,2,0
19680,17.956237,479,0.4370445895833336,56,G3.666666666666667#,96,2,0
21120,19.270108,227,0.20711716458333285,51,D3.25#,80,2,0
21360,19.4890865,239,0.2180660895833336,51,D3.25#,96,2,0
21360,19.4890865,239,0.2180660895833336,58,A3.833333333333333#,96,2,0
21600,19.708065,479,0.4370445895833336,51,D3.25#,96,2,0
21600,19.708065,479,0.4370445895833336,58,A3.833333333333333#,96,2,0
22080,20.146022,479,0.4370445895833336,51,D3.25#,96,2,0
22080,20.146022,479,0.4370445895833336,58,A3.833333333333333#,96,2,0
22800,20.8029575,239,0.2180660895833336,49,C3.083333333333333#,96,2,0
22800,20.8029575,239,0.2180660895833336,56,G3.666666666666667#,96,2,0
23040,21.021936,479,0.4370445895833336,49,C3.083333333333333#,96,2,0
23040,21.021936,479,0.4370445895833336,56,G3.666666666666667#,96,2,0
23520,21.459893,479,0.4370445895833336,49,C3.083333333333333#,96,2,0
23520,21.459893,479,0.4370445895833336,56,G3.666666666666667#,96,2,0
24960,22.773764,227,0.20711716458333285,47,B2.9166666666666665,80,2,0
25200,22.9927425,239,0.2180660895833336,47,B2.9166666666666665,96,2,0
25200,22.9927425,239,0.2180660895833336,54,F3.5#,96,2,0
25440,23.211721,479,0.4370445895833336,47,B2.9166666666666665,96,2,0
25440,23.211721,479,0.4370445895833336,54,F3.5#,96,2,0
25920,23.649678,479,0.4370445895833336,47,B2.9166666666666665,96,2,0
25920,23.649678,479,0.4370445895833336,54,F3.5#,96,2,0
26640,24.3066135,239,0.2180660895833336,49,C3.083333333333333#,96,2,0
26640,24.3066135,239,0.2180660895833336,56,G3.666666666666667#,96,2,0
26880,24.525592,479,0.4370445895833336,49,C3.083333333333333#,96,2,0
26880,24.525592,479,0.4370445895833336,56,G3.666666666666667#,96,2,0
27360,24.963549,479,0.4370445895833336,49,C3.083333333333333#,96,2,0
27360,24.963549,479,0.4370445895833336,56,G3.666666666666667#,96,2,0
28800,26.27742,227,0.20711716458333285,51,D3.25#,80,2,0
29040,26.4963985,239,0.2180660895833336,51,D3.25#,96,2,0
29040,26.4963985,239,0.2180660895833336,58,A3.833333333333333#,96,2,0
29280,26.715377,479,0.4370445895833336,51,D3.25#,96,2,0
29280,26.715377,479,0.4370445895833336,58,A3.833333333333333#,96,2,0
29760,27.153334,479,0.4370445895833336,51,D3.25#,96,2,0
29760,27.153334,479,0.4370445895833336,58,A3.833333333333333#,96,2,0
30480,27.8102695,239,0.2180660895833336,49,C3.083333333333333#,96,2,0
30480,27.8102695,239,0.2180660895833336,56,G3.666666666666667#,96,2,0
30720,28.029248,719,0.6560230895833336,49,C3.083333333333333#,96,2,0
30720,28.029248,719,0.6560230895833336,56,G3.666666666666667#,96,2,0
31440,28.6861835,227,0.20711716458333285,53,F3.416666666666667,80,2,0
31680,28.905162,239,0.2180660895833336,54,F3.5#,80,2,0
31920,29.1241405,239,0.2180660895833336,53,F3.416666666666667,80,2,0
32160,29.343119,239,0.2180660895833336,51,D3.25#,80,2,0
32400,29.5620975,227,0.20711716458333285,49,C3.083333333333333#,80,2,0
32640,29.781076,1823,1.663324189583335,51,D3.25#,80,2,0
32880,30.0000545,239,0.2180660895833336,58,A3.833333333333333#,96,2,0
33120,30.219033,239,0.2180660895833336,58,A3.833333333333333#,96,2,0
33360,30.4380115,239,0.2180660895833336,58,A3.833333333333333#,96,2,0
33600,30.65699,239,0.2180660895833336,58,A3.833333333333333#,96,2,0
33840,30.8759685,239,0.2180660895833336,58,A3.833333333333333#,96,2,0
34080,31.094947,239,0.2180660895833336,56,G3.666666666666667#,96,2,0
34320,31.3139255,239,0.2180660895833336,58,A3.833333333333333#,96,2,0
34560,31.532904,239,0.2180660895833336,61,C4.083333333333333#,96,2,0
34560,31.532904,1823,1.663324189583335,49,C3.083333333333333#,80,2,0
34800,31.7518825,239,0.2180660895833336,58,A3.833333333333333#,96,2,0
35040,31.970861,479,0.4370445895833336,56,G3.666666666666667#,96,2,0
35520,32.408818,719,0.6560230895833336,58,A3.833333333333333#,96,2,0
36240,33.0657535,239,0.2180660895833336,58,A3.833333333333333#,96,2,0
36480,33.284732,239,0.2180660895833336,58,A3.833333333333333#,96,2,0
36480,33.284732,1823,1.6633241895833313,51,D3.25#,80,2,0
36720,33.5037105,239,0.21806608958332985,58,A3.833333333333333#,96,2,0
36960,33.722689,239,0.21806608958332985,58,A3.833333333333333#,96,2,0
37200,33.9416675,239,0.21806608958332985,58,A3.833333333333333#,96,2,0
37440,34.160646,239,0.21806608958332985,56,G3.666666666666667#,96,2,0
37680,34.3796245,239,0.21806608958332985,58,A3.833333333333333#,96,2,0
37920,34.598603,239,0.21806608958332985,56,G3.666666666666667#,96,2,0
38160,34.8175815,239,0.21806608958332985,54,F3.5#,96,2,0
38400,35.03656,239,0.21806608958332985,56,G3.666666666666667#,96,2,0
38400,35.03656,1823,1.6633241895833313,49,C3.083333333333333#,80,2,0
38640,35.2555385,239,0.21806608958332985,54,F3.5#,96,2,0
38880,35.474517,959,0.8750015895833299,58,A3.833333333333333#,96,2,0
40080,36.5694095,239,0.21806608958332985,58,A3.833333333333333#,96,2,0
40320,36.788388,239,0.21806608958332985,56,G3.666666666666667#,96,2,0
40320,36.788388,1823,1.6633241895833313,47,B2.9166666666666665,80,2,0
40560,37.0073665,239,0.21806608958332985,54,F3.5#,96,2,0
40800,37.226345,479,0.43704458958332987,51,D3.25#,96,2,0
41280,37.664302,479,0.43704458958332987,51,D3.25#,96,2,0
41760,38.102259,239,0.21806608958332985,51,D3.25#,96,2,0
42000,38.3212375,239,0.21806608958332985,51,D3.25#,96,2,0
42240,38.540216,239,0.21806608958332985,53,F3.416666666666667,96,2,0
42240,38.540216,455,0.4151467395833358,49,C3.083333333333333#,80,2,0
42480,38.7591945,239,0.21806608958332985,51,D3.25#,96,2,0
42720,38.978173,479,0.43704458958332987,49,C3.083333333333333#,96,2,0
43200,39.41613,479,0.43704458958332987,49,C3.083333333333333#,96,2,0
43680,39.854087,479,0.43704458958332987,51,D3.25#,96,2,0
44160,40.292044,239,0.21806608958332985,54,F3.5#,96,2,0
44160,40.292044,1367,1.247265039583333,39,D2.25#,80,2,0
44400,40.5110225,1151,1.0501843895833343,51,D3.25#,96,2,0
45600,41.605915,239,0.21806608958332985,58,A3.833333333333333#,96,2,0
45840,41.8248935,239,0.21806608958332985,58,A3.833333333333333#,96,2,0
46080,42.043872,239,0.21806608958332985,61,C4.083333333333333#,96,2,0
46080,42.043872,1367,1.247265039583333,49,C3.083333333333333#,80,2,0
46320,42.2628505,239,0.21806608958332985,58,A3.833333333333333#,96,2,0
46560,42.481829,479,0.43704458958332987,56,G3.666666666666667#,96,2,0
47040,42.919786,479,0.43704458958332987,58,A3.833333333333333#,96,2,0
47520,43.357743,227,0.20711716458333285,56,G3.666666666666667#,80,2,0
47760,43.5767215,467,0.4260956645833328,39,D2.25#,115,2,0
48240,44.0146785,227,0.20711716458333285,42,F2.5#,96,2,0
48480,44.233657,227,0.20711716458333285,46,A2.8333333333333335#,96,2,0
48720,44.4526355,227,0.20711716458333285,54,F3.5#,96,2,0
48960,44.671614,683,0.6231763145833313,51,D3.25#,96,2,0
49680,45.3285495,455,0.4151467395833358,49,C3.083333333333333#,96,2,0
49680,45.3285495,455,0.4151467395833358,53,F3.416666666666667,96,2,0
50160,45.7665065,227,0.20711716458333285,51,D3.25#,96,2,0
50400,45.985485,455,0.4151467395833358,49,C3.083333333333333#,96,2,0
50880,46.423442,455,0.4151467395833358,49,C3.083333333333333#,96,2,0
51600,47.0803775,467,0.4260956645833328,39,D2.25#,115,2,0
52080,47.5183345,227,0.20711716458333285,42,F2.5#,96,2,0
52320,47.737313,227,0.20711716458333285,46,A2.8333333333333335#,96,2,0
52560,47.9562915,227,0.20711716458333285,54,F3.5#,96,2,0
52800,48.17527,683,0.6231763145833313,51,D3.25#,96,2,0
53520,48.8322055,455,0.4151467395833358,49,C3.083333333333333#,96,2,0
53520,48.8322055,455,0.4151467395833358,53,F3.416666666666667,96,2,0
54000,49.2701625,227,0.20711716458333285,51,D3.25#,96,2,0
54240,49.489141,911,0.8312058895833343,49,C3.083333333333333#,96,2,0
55440,50.5840335,467,0.4260956645833328,39,D2.25#,115,2,0
55920,51.0219905,227,0.20711716458333285,42,F2.5#,96,2,0
56160,51.240969,227,0.20711716458333285,46,A2.8333333333333335#,96,2,0
56400,51.4599475,227,0.20711716458333285,54,F3.5#,96,2,0
56640,51.678926,683,0.6231763145833313,51,D3.25#,96,2,0
57360,52.3358615,455,0.4151467395833358,49,C3.083333333333333#,96,2,0
57360,52.3358615,455,0.4151467395833358,53,F3.416666666666667,96,2,0
57840,52.7738185,227,0.20711716458333285,51,D3.25#,96,2,0
58080,52.992797,455,0.4151467395833358,49,C3.083333333333333#,96,2,0
58560,53.430754,683,0.6231763145833313,49,C3.083333333333333#,96,2,0
59280,54.0876895,467,0.4260956645833328,39,D2.25#,115,2,0
59760,54.5256465,227,0.20711716458333285,42,F2.5#,96,2,0
60000,54.744625,227,0.20711716458333285,46,A2.8333333333333335#,96,2,0
60240,54.9636035,227,0.20711716458333285,54,F3.5#,96,2,0
60480,55.182582,683,0.6231763145833313,51,D3.25#,96,2,0
61200,55.8395175,455,0.4151467395833358,49,C3.083333333333333#,96,2,0
61200,55.8395175,455,0.4151467395833358,53,F3.416666666666667,96,2,0
61680,56.2774745,227,0.20711716458333285,51,D3.25#,96,2,0
61920,56.496453,911,0.8312058895833343,49,C3.083333333333333#,96,2,0
63120,57.5913455,467,0.4260956645833328,39,D2.25#,115,2,0
63600,58.0293025,227,0.20711716458333285,42,F2.5#,96,2,0
63840,58.248281,227,0.20711716458333285,46,A2.8333333333333335#,96,2,0
64080,58.4672595,227,0.20711716458333285,54,F3.5#,96,2,0
64320,58.686238,683,0.6231763145833313,51,D3.25#,96,2,0
65040,59.3431735,455,0.4151467395833358,49,C3.083333333333333#,96,2,0
65040,59.3431735,455,0.4151467395833358,53,F3.416666666666667,96,2,0
65520,59.7811305,227,0.20711716458333285,51,D3.25#,96,2,0
65760,60.000109,455,0.4151467395833358,49,C3.083333333333333#,96,2,0
66240,60.438066,455,0.4151467395833358,49,C3.083333333333333#,96,2,0
66960,61.0950015,467,0.4260956645833328,39,D2.25#,115,2,0
67440,61.5329585,227,0.20711716458333285,42,F2.5#,96,2,0
67680,61.751937,227,0.20711716458333285,46,A2.8333333333333335#,96,2,0
67920,61.9709155,227,0.20711716458333285,54,F3.5#,96,2,0
68160,62.189894,683,0.6231763145833313,51,D3.25#,96,2,0
68880,62.8468295,455,0.4151467395833358,49,C3.083333333333333#,96,2,0
68880,62.8468295,455,0.4151467395833358,53,F3.416666666666667,96,2,0
69360,63.2847865,227,0.20711716458333285,51,D3.25#,96,2,0
69600,63.503765,911,0.8312058895833343,49,C3.083333333333333#,96,2,0
71040,64.817636,683,0.6231763145833313,51,D3.25#,80,2,0
71760,65.4745715,455,0.4151467395833358,58,A3.833333333333333#,80,2,0
71760,65.4745715,455,0.4151467395833358,66,F4.5#,80,2,0
72240,65.9125285,227,0.20711716458333285,63,D4.25#,80,2,0
72480,66.131507,455,0.4151467395833358,51,D3.25#,80,2,0
72960,66.569464,683,0.6231763145833313,49,C3.083333333333333#,80,2,0
73680,67.2263995,239,0.2180660895833373,65,F4.416666666666667,80,2,0
73920,67.445378,239,0.2180660895833373,66,F4.5#,80,2,0
74160,67.6643565,239,0.2180660895833373,65,F4.416666666666667,80,2,0
74400,67.883335,227,0.20711716458334029,63,D4.25#,80,2,0
74640,68.1023135,227,0.20711716458334029,61,C4.083333333333333#,80,2,0
74880,68.321292,683,0.6231763145833313,51,D3.25#,80,2,0
75600,68.9782275,455,0.4151467395833284,58,A3.833333333333333#,80,2,0
75600,68.9782275,455,0.4151467395833284,66,F4.5#,80,2,0
76080,69.4161845,227,0.20711716458334029,63,D4.25#,80,2,0
76320,69.635163,455,0.4151467395833284,51,D3.25#,80,2,0
76800,70.07312,683,0.6231763145833313,49,C3.083333333333333#,80,2,0
77520,70.7300555,227,0.20711716458334029,53,F3.416666666666667,80,2,0
77760,70.949034,239,0.2180660895833373,54,F3.5#,80,2,0
78000,71.1680125,239,0.2180660895833373,53,F3.416666666666667,80,2,0
78240,71.386991,239,0.2180660895833373,51,D3.25#,80,2,0
78480,71.6059695,227,0.20711716458334029,49,C3.083333333333333#,80,2,0
78720,71.824948,683,0.6231763145833313,47,B2.9166666666666665,80,2,0
79440,72.4818835,683,0.6231763145833313,54,F3.5#,80,2,0
79440,72.4818835,683,0.6231763145833313,59,B3.916666666666667,80,2,0
80160,73.138819,455,0.4151467395833284,47,B2.9166666666666665,80,2,0
80640,73.576776,683,0.6231763145833313,49,C3.083333333333333#,80,2,0
81360,74.2337115,683,0.6231763145833313,53,F3.416666666666667,80,2,0
81360,74.2337115,683,0.6231763145833313,56,G3.666666666666667#,80,2,0
82080,74.890647,455,0.4151467395833284,49,C3.083333333333333#,80,2,0
82560,75.328604,683,0.6231763145833313,51,D3.25#,80,2,0
83280,75.9855395,455,0.4151467395833284,54,F3.5#,80,2,0
83280,75.9855395,455,0.4151467395833284,58,A3.833333333333333#,80,2,0
83760,76.4234965,227,0.20711716458334029,54,F3.5#,80,2,0
84000,76.642475,455,0.4151467395833284,51,D3.25#,80,2,0
84480,77.080432,683,0.6231763145833313,49,C3.083333333333333#,80,2,0
85200,77.7373675,239,0.2180660895833373,53,F3.416666666666667,80,2,0
85440,77.956346,239,0.2180660895833373,54,F3.5#,80,2,0
85680,78.1753245,239,0.2180660895833373,53,F3.416666666666667,80,2,0
85920,78.394303,239,0.2180660895833373,51,D3.25#,80,2,0
86160,78.6132815,227,0.20711716458334029,49,C3.083333333333333#,80,2,0
86400,78.83226,1823,1.6633241895833313,51,D3.25#,80,2,0
86640,79.0512385,239,0.2180660895833373,58,A3.833333333333333#,96,2,0
86880,79.270217,239,0.2180660895833373,58,A3.833333333333333#,96,2,0
87120,79.4891955,239,0.2180660895833373,58,A3.833333333333333#,96,2,0
87360,79.708174,239,0.2180660895833373,58,A3.833333333333333#,96,2,0
87600,79.9271525,239,0.2180660895833373,58,A3.833333333333333#,96,2,0
87840,80.146131,239,0.2180660895833373,56,G3.666666666666667#,96,2,0
88080,80.3651095,239,0.2180660895833373,58,A3.833333333333333#,96,2,0
88320,80.584088,239,0.2180660895833373,61,C4.083333333333333#,96,2,0
88320,80.584088,1823,1.6633241895833313,49,C3.083333333333333#,80,2,0
88560,80.8030665,239,0.2180660895833373,58,A3.833333333333333#,96,2,0
88800,81.022045,479,0.4370445895833373,56,G3.666666666666667#,96,2,0
89280,81.460002,719,0.6560230895833373,58,A3.833333333333333#,96,2,0
90000,82.1169375,239,0.2180660895833373,58,A3.833333333333333#,96,2,0
90240,82.335916,239,0.2180660895833373,58,A3.833333333333333#,96,2,0
90240,82.335916,1823,1.6633241895833313,51,D3.25#,80,2,0
90480,82.5548945,239,0.2180660895833373,58,A3.833333333333333#,96,2,0
90720,82.773873,239,0.2180660895833373,58,A3.833333333333333#,96,2,0
90960,82.9928515,239,0.2180660895833373,58,A3.833333333333333#,96,2,0
91200,83.21183,239,0.2180660895833373,56,G3.666666666666667#,96,2,0
91440,83.4308085,239,0.2180660895833373,58,A3.833333333333333#,96,2,0
91680,83.649787,239,0.2180660895833373,56,G3.666666666666667#,96,2,0
91920,83.8687655,239,0.2180660895833373,54,F3.5#,96,2,0
92160,84.087744,239,0.2180660895833373,56,G3.666666666666667#,96,2,0
92160,84.087744,1823,1.6633241895833313,49,C3.083333333333333#,80,2,0
92400,84.3067225,239,0.2180660895833373,54,F3.5#,96,2,0
92640,84.525701,959,0.8750015895833373,58,A3.833333333333333#,96,2,0
93840,85.6205935,239,0.2180660895833373,58,A3.833333333333333#,96,2,0
94080,85.839572,239,0.2180660895833373,56,G3.666666666666667#,96,2,0
94080,85.839572,1823,1.6633241895833313,47,B2.9166666666666665,80,2,0
94320,86.0585505,239,0.2180660895833373,54,F3.5#,96,2,0
94560,86.277529,239,0.2180660895833373,51,D3.25#,96,2,0
94800,86.4965075,239,0.2180660895833373,51,D3.25#,96,2,0
95040,86.715486,239,0.2180660895833373,54,F3.5#,96,2,0
95280,86.9344645,239,0.2180660895833373,51,D3.25#,96,2,0
95520,87.153443,239,0.2180660895833373,51,D3.25#,96,2,0
95760,87.3724215,239,0.2180660895833373,51,D3.25#,96,2,0
96000,87.5914,239,0.2180660895833373,53,F3.416666666666667,96,2,0
96000,87.5914,455,0.4151467395833284,49,C3.083333333333333#,80,2,0
96240,87.8103785,239,0.2180660895833373,51,D3.25#,96,2,0
96480,88.029357,479,0.4370445895833373,49,C3.083333333333333#,96,2,0
96960,88.467314,479,0.4370445895833373,49,C3.083333333333333#,96,2,0
97440,88.905271,455,0.4151467395833284,51,D3.25#,80,2,0
97920,89.343228,239,0.2180660895833373,54,F3.5#,96,2,0
97920,89.343228,1367,1.2472650395833402,39,D2.25#,80,2,0
98160,89.5622065,1151,1.0501843895833343,51,D3.25#,96,2,0
99360,90.657099,239,0.2180660895833373,58,A3.833333333333333#,96,2,0
99600,90.8760775,227,0.20711716458334029,58,A3.833333333333333#,80,2,0
99840,91.095056,239,0.2180660895833373,61,C4.083333333333333#,96,2,0
99840,91.095056,1367,1.2472650395833402,49,C3.083333333333333#,80,2,0
100080,91.3140345,239,0.2180660895833373,58,A3.833333333333333#,96,2,0
100320,91.533013,479,0.4370445895833373,56,G3.666666666666667#,96,2,0
100800,91.97097,479,0.4370445895833373,58,A3.833333333333333#,96,2,0
101280,92.408927,239,0.2180660895833373,56,G3.666666666666667#,96,2,0
101520,92.6279055,467,0.4260956645833403,39,D2.25#,115,2,0
102000,93.0658625,227,0.20711716458334029,42,F2.5#,96,2,0
102240,93.284841,227,0.20711716458334029,46,A2.8333333333333335#,96,2,0
102480,93.5038195,227,0.20711716458334029,54,F3.5#,96,2,0
102720,93.722798,683,0.6231763145833313,51,D3.25#,96,2,0
103440,94.3797335,455,0.4151467395833284,49,C3.083333333333333#,96,2,0
103440,94.3797335,455,0.4151467395833284,53,F3.416666666666667,96,2,0
103920,94.8176905,227,0.20711716458334029,51,D3.25#,96,2,0
104160,95.036669,455,0.4151467395833284,49,C3.083333333333333#,96,2,0
104640,95.474626,455,0.4151467395833284,49,C3.083333333333333#,96,2,0
105360,96.1315615,467,0.4260956645833403,39,D2.25#,115,2,0
105840,96.5695185,227,0.20711716458334029,42,F2.5#,96,2,0
106080,96.788497,227,0.20711716458334029,46,A2.8333333333333335#,96,2,0
106320,97.0074755,227,0.20711716458334029,54,F3.5#,96,2,0
106560,97.226454,683,0.6231763145833313,51,D3.25#,96,2,0
107280,97.8833895,455,0.4151467395833284,49,C3.083333333333333#,96,2,0
107280,97.8833895,455,0.4151467395833284,53,F3.416666666666667,96,2,0
107760,98.3213465,227,0.20711716458334029,51,D3.25#,96,2,0
108000,98.540325,911,0.8312058895833343,49,C3.083333333333333#,96,2,0
109200,99.6352175,467,0.4260956645833403,39,D2.25#,115,2,0
109680,100.0731745,227,0.20711716458334029,42,F2.5#,96,2,0
109920,100.292153,227,0.20711716458334029,46,A2.8333333333333335#,96,2,0
110160,100.5111315,227,0.20711716458334029,54,F3.5#,96,2,0
110400,100.73011,683,0.6231763145833313,51,D3.25#,96,2,0
111120,101.3870455,455,0.4151467395833284,49,C3.083333333333333#,96,2,0
111120,101.3870455,455,0.4151467395833284,53,F3.416666666666667,96,2,0
111600,101.8250025,227,0.20711716458334029,51,D3.25#,96,2,0
111840,102.043981,455,0.4151467395833284,49,C3.083333333333333#,96,2,0
112320,102.481938,683,0.6231763145833313,49,C3.083333333333333#,96,2,0
113040,103.1388735,467,0.4260956645833403,39,D2.25#,115,2,0
113520,103.5768305,227,0.20711716458334029,42,F2.5#,96,2,0
113760,103.795809,227,0.20711716458334029,46,A2.8333333333333335#,96,2,0
114000,104.0147875,227,0.20711716458334029,54,F3.5#,96,2,0
114240,104.233766,683,0.6231763145833313,51,D3.25#,96,2,0
114960,104.8907015,455,0.4151467395833284,49,C3.083333333333333#,96,2,0
114960,104.8907015,455,0.4151467395833284,53,F3.416666666666667,96,2,0
115440,105.3286585,227,0.20711716458334029,51,D3.25#,96,2,0
115680,105.547637,911,0.8312058895833343,49,C3.083333333333333#,96,2,0
116880,106.6425295,467,0.4260956645833403,39,D2.25#,115,2,0
117360,107.0804865,227,0.20711716458334029,42,F2.5#,96,2,0
117600,107.299465,227,0.20711716458334029,46,A2.8333333333333335#,96,2,0
117840,107.5184435,227,0.20711716458334029,54,F3.5#,96,2,0
118080,107.737422,683,0.6231763145833313,51,D3.25#,96,2,0
118800,108.3943575,455,0.4151467395833284,49,C3.083333333333333#,96,2,0
118800,108.3943575,455,0.4151467395833284,53,F3.416666666666667,96,2,0
119280,108.8323145,227,0.20711716458334029,51,D3.25#,96,2,0
119520,109.051293,455,0.4151467395833284,49,C3.083333333333333#,96,2,0
120000,109.48925,455,0.4151467395833284,49,C3.083333333333333#,96,2,0
120720,110.1461855,467,0.4260956645833403,39,D2.25#,115,2,0
121200,110.5841425,227,0.20711716458334029,42,F2.5#,96,2,0
121440,110.803121,227,0.20711716458334029,46,A2.8333333333333335#,96,2,0
121680,111.0220995,227,0.20711716458334029,54,F3.5#,96,2,0
121920,111.241078,683,0.6231763145833313,51,D3.25#,96,2,0
122640,111.8980135,455,0.4151467395833284,49,C3.083333333333333#,96,2,0
122640,111.8980135,455,0.4151467395833284,53,F3.416666666666667,96,2,0
123120,112.3359705,227,0.20711716458334029,51,D3.25#,96,2,0
123360,112.554949,911,0.8312058895833343,49,C3.083333333333333#,96,2,0
124560,113.6498415,467,0.4260956645833403,39,D2.25#,115,2,0
125040,114.0877985,227,0.20711716458334029,42,F2.5#,96,2,0
125280,114.306777,227,0.20711716458334029,46,A2.8333333333333335#,96,2,0
125520,114.5257555,227,0.20711716458334029,54,F3.5#,96,2,0
125760,114.744734,683,0.6231763145833313,51,D3.25#,96,2,0
126480,115.4016695,455,0.4151467395833284,49,C3.083333333333333#,96,2,0
126480,115.4016695,455,0.4151467395833284,53,F3.416666666666667,96,2,0
126960,115.8396265,227,0.20711716458334029,51,D3.25#,96,2,0
127200,116.058605,455,0.4151467395833284,49,C3.083333333333333#,96,2,0
127680,116.496562,683,0.6231763145833313,49,C3.083333333333333#,96,2,0
128400,117.1534975,467,0.4260956645833403,39,D2.25#,115,2,0
128880,117.5914545,227,0.20711716458334029,42,F2.5#,96,2,0
129120,117.810433,227,0.20711716458334029,46,A2.8333333333333335#,96,2,0
129360,118.0294115,227,0.20711716458334029,54,F3.5#,96,2,0
129600,118.24839,683,0.6231763145833313,51,D3.25#,96,2,0
130320,118.9053255,455,0.4151467395833284,49,C3.083333333333333#,96,2,0
130320,118.9053255,455,0.4151467395833284,53,F3.416666666666667,96,2,0
130800,119.3432825,227,0.20711716458334029,51,D3.25#,96,2,0
131040,119.562261,1367,1.2472650395833402,49,C3.083333333333333#,96,2,0
132720,121.0951105,119,0.1085768395833373,39,D2.25#,96,2,0
132720,121.0951105,119,0.1085768395833373,51,D3.25#,96,2,0
132960,121.314089,239,0.2180660895833373,39,D2.25#,96,2,0
132960,121.314089,239,0.2180660895833373,51,D3.25#,96,2,0
133440,121.752046,239,0.2180660895833373,39,D2.25#,96,2,0
133440,121.752046,239,0.2180660895833373,51,D3.25#,96,2,0
134160,122.4089815,119,0.1085768395833373,39,D2.25#,96,2,0
134160,122.4089815,119,0.1085768395833373,51,D3.25#,96,2,0
134400,122.62796,239,0.2180660895833373,39,D2.25#,96,2,0
134400,122.62796,239,0.2180660895833373,51,D3.25#,96,2,0
134880,123.065917,239,0.2180660895833373,39,D2.25#,96,2,0
134880,123.065917,239,0.2180660895833373,51,D3.25#,96,2,0
135360,123.503874,239,0.2180660895833373,54,F3.5#,96,2,0
135600,123.7228525,239,0.2180660895833373,51,D3.25#,96,2,0
135840,123.941831,239,0.2180660895833373,54,F3.5#,96,2,0
136080,124.1608095,227,0.20711716458334029,51,D3.25#,96,2,0
136560,124.5987665,119,0.1085768395833373,39,D2.25#,96,2,0
136560,124.5987665,119,0.1085768395833373,51,D3.25#,96,2,0
136800,124.817745,239,0.2180660895833373,39,D2.25#,96,2,0
136800,124.817745,239,0.2180660895833373,51,D3.25#,96,2,0
137280,125.255702,239,0.2180660895833373,39,D2.25#,96,2,0
137280,125.255702,239,0.2180660895833373,51,D3.25#,96,2,0
138000,125.9126375,119,0.1085768395833373,39,D2.25#,96,2,0
138000,125.9126375,119,0.1085768395833373,51,D3.25#,96,2,0
138240,126.131616,239,0.2180660895833373,39,D2.25#,96,2,0
138240,126.131616,239,0.2180660895833373,51,D3.25#,96,2,0
138720,126.569573,239,0.2180660895833373,39,D2.25#,96,2,0
138720,126.569573,239,0.2180660895833373,51,D3.25#,96,2,0
139200,127.00753,911,0.8312058895833343,37,C2.0833333333333335#,96,2,0
139200,127.00753,911,0.8312058895833343,49,C3.083333333333333#,96,2,0
140400,128.1024225,119,0.1085768395833373,39,D2.25#,96,2,0
140400,128.1024225,119,0.1085768395833373,51,D3.25#,96,2,0
140640,128.321401,239,0.2180660895833373,39,D2.25#,96,2,0
140640,128.321401,239,0.2180660895833373,51,D3.25#,96,2,0
141120,128.759358,239,0.2180660895833373,39,D2.25#,96,2,0
141120,128.759358,239,0.2180660895833373,51,D3.25#,96,2,0
141840,129.4162935,119,0.1085768395833373,39,D2.25#,96,2,0
141840,129.4162935,119,0.1085768395833373,51,D3.25#,96,2,0
142080,129.635272,239,0.2180660895833373,39,D2.25#,96,2,0
142080,129.635272,239,0.2180660895833373,51,D3.25#,96,2,0
142560,130.073229,239,0.2180660895833373,39,D2.25#,96,2,0
142560,130.073229,239,0.2180660895833373,51,D3.25#,96,2,0
143040,130.511186,239,0.2180660895833373,54,F3.5#,96,2,0
143280,130.7301645,239,0.2180660895833373,51,D3.25#,96,2,0
143520,130.949143,239,0.2180660895833373,54,F3.5#,96,2,0
143760,131.1681215,227,0.20711716458334029,51,D3.25#,96,2,0
144240,131.6060785,119,0.1085768395833373,39,D2.25#,96,2,0
144240,131.6060785,119,0.1085768395833373,51,D3.25#,96,2,0
144480,131.825057,239,0.2180660895833373,39,D2.25#,96,2,0
144480,131.825057,239,0.2180660895833373,51,D3.25#,96,2,0
144960,132.263014,239,0.2180660895833373,39,D2.25#,96,2,0
144960,132.263014,239,0.2180660895833373,51,D3.25#,96,2,0
145680,132.9199495,119,0.1085768395833373,39,D2.25#,96,2,0
145680,132.9199495,119,0.1085768395833373,51,D3.25#,96,2,0
145920,133.138928,239,0.2180660895833373,39,D2.25#,96,2,0
145920,133.138928,239,0.2180660895833373,51,D3.25#,96,2,0
146400,133.576885,239,0.2180660895833373,39,D2.25#,96,2,0
146400,133.576885,239,0.2180660895833373,51,D3.25#,96,2,0
146880,134.014842,911,0.8312058895833194,37,C2.0833333333333335#,96,2,0
146880,134.014842,911,0.8312058895833194,49,C3.083333333333333#,96,2,0
148080,135.1097345,119,0.1085768395833373,39,D2.25#,96,2,0
148080,135.1097345,119,0.1085768395833373,51,D3.25#,96,2,0
148320,135.328713,239,0.2180660895833373,39,D2.25#,96,2,0
148320,135.328713,239,0.2180660895833373,51,D3.25#,96,2,0
148800,135.76667,239,0.2180660895833373,39,D2.25#,96,2,0
148800,135.76667,239,0.2180660895833373,51,D3.25#,96,2,0
149520,136.4236055,119,0.1085768395833373,39,D2.25#,96,2,0
149520,136.4236055,119,0.1085768395833373,51,D3.25#,96,2,0
149760,136.642584,239,0.2180660895833373,39,D2.25#,96,2,0
149760,136.642584,239,0.2180660895833373,51,D3.25#,96,2,0
150240,137.080541,455,0.41514673958334325,39,D2.25#,96,2,0
150240,137.080541,455,0.41514673958334325,51,D3.25#,96,2,0
150720,137.518498,239,0.2180660895833373,54,F3.5#,96,2,0
150960,137.7374765,239,0.2180660895833373,51,D3.25#,96,2,0
151200,137.956455,239,0.2180660895833373,54,F3.5#,96,2,0
151440,138.1754335,227,0.20711716458332538,51,D3.25#,96,2,0
151920,138.6133905,119,0.1085768395833373,39,D2.25#,96,2,0
151920,138.6133905,119,0.1085768395833373,51,D3.25#,96,2,0
152160,138.832369,239,0.2180660895833373,39,D2.25#,96,2,0
152160,138.832369,239,0.2180660895833373,51,D3.25#,96,2,0
152640,139.270326,239,0.2180660895833373,39,D2.25#,96,2,0
152640,139.270326,239,0.2180660895833373,51,D3.25#,96,2,0
153360,139.9272615,119,0.1085768395833373,39,D2.25#,96,2,0
153360,139.9272615,119,0.1085768395833373,51,D3.25#,96,2,0
153600,140.14624,239,0.2180660895833373,39,D2.25#,96,2,0
153600,140.14624,239,0.2180660895833373,51,D3.25#,96,2,0
154080,140.584197,239,0.2180660895833373,39,D2.25#,96,2,0
154080,140.584197,239,0.2180660895833373,51,D3.25#,96,2,0
154560,141.022154,911,0.8312058895833194,37,C2.0833333333333335#,96,2,0
154560,141.022154,911,0.8312058895833194,49,C3.083333333333333#,96,2,0
155760,142.1170465,119,0.1085768395833373,39,D2.25#,96,2,0
155760,142.1170465,119,0.1085768395833373,51,D3.25#,96,2,0
156000,142.336025,239,0.2180660895833373,39,D2.25#,96,2,0
156000,142.336025,239,0.2180660895833373,51,D3.25#,96,2,0
156480,142.773982,239,0.2180660895833373,39,D2.25#,96,2,0
156480,142.773982,239,0.2180660895833373,51,D3.25#,96,2,0
157200,143.4309175,119,0.1085768395833373,39,D2.25#,96,2,0
157200,143.4309175,119,0.1085768395833373,51,D3.25#,96,2,0
157440,143.649896,239,0.2180660895833373,39,D2.25#,96,2,0
157440,143.649896,239,0.2180660895833373,51,D3.25#,96,2,0
157920,144.087853,239,0.2180660895833373,39,D2.25#,96,2,0
157920,144.087853,239,0.2180660895833373,51,D3.25#,96,2,0
158400,144.52581,239,0.2180660895833373,54,F3.5#,96,2,0
158640,144.7447885,239,0.2180660895833373,51,D3.25#,96,2,0
158880,144.963767,239,0.2180660895833373,54,F3.5#,96,2,0
159120,145.1827455,227,0.20711716458332538,51,D3.25#,96,2,0
159600,145.6207025,119,0.1085768395833373,39,D2.25#,97,2,0
159600,145.6207025,119,0.1085768395833373,51,D3.25#,97,2,0
159840,145.839681,239,0.2180660895833373,39,D2.25#,98,2,0
159840,145.839681,239,0.2180660895833373,51,D3.25#,98,2,0
160320,146.277638,239,0.2180660895833373,39,D2.25#,100,2,0
160320,146.277638,239,0.2180660895833373,51,D3.25#,100,2,0
161040,146.9345735,119,0.1085768395833373,39,D2.25#,103,2,0
161040,146.9345735,119,0.1085768395833373,51,D3.25#,103,2,0
161280,147.153552,239,0.2180660895833373,39,D2.25#,104,2,0
161280,147.153552,239,0.2180660895833373,51,D3.25#,104,2,0
161760,147.591509,239,0.2180660895833373,39,D2.25#,106,2,0
161760,147.591509,239,0.2180660895833373,51,D3.25#,106,2,0
162240,148.029466,911,0.8312058895833194,37,C2.0833333333333335#,108,2,0
162240,148.029466,911,0.8312058895833194,49,C3.083333333333333#,108,2,0
163440,149.1243585,119,0.1085768395833373,39,D2.25#,112,2,0
163440,149.1243585,119,0.1085768395833373,46,A2.8333333333333335#,112,2,0
163440,149.1243585,119,0.1085768395833373,51,D3.25#,112,2,0
163680,149.343337,239,0.2180660895833373,39,D2.25#,112,2,0
163680,149.343337,239,0.2180660895833373,46,A2.8333333333333335#,112,2,0
163680,149.343337,239,0.2180660895833373,51,D3.25#,112,2,0
164160,149.781294,239,0.2180660895833373,39,D2.25#,112,2,0
164160,149.781294,239,0.2180660895833373,46,A2.8333333333333335#,112,2,0
164160,149.781294,239,0.2180660895833373,51,D3.25#,112,2,0
164880,150.4382295,119,0.1085768395833373,37,C2.0833333333333335#,112,2,0
164880,150.4382295,119,0.1085768395833373,44,G2.6666666666666665#,112,2,0
164880,150.4382295,119,0.1085768395833373,49,C3.083333333333333#,112,2,0
165120,150.657208,239,0.2180660895833373,37,C2.0833333333333335#,112,2,0
165120,150.657208,239,0.2180660895833373,44,G2.6666666666666665#,112,2,0
165120,150.657208,239,0.2180660895833373,49,C3.083333333333333#,112,2,0
165600,151.095165,239,0.2180660895833373,37,C2.0833333333333335#,112,2,0
165600,151.095165,239,0.2180660895833373,44,G2.6666666666666665#,112,2,0
165600,151.095165,239,0.2180660895833373,49,C3.083333333333333#,112,2,0
167280,152.6280145,119,0.1085768395833373,39,D2.25#,112,2,0
167280,152.6280145,119,0.1085768395833373,46,A2.8333333333333335#,112,2,0
167280,152.6280145,119,0.1085768395833373,51,D3.25#,112,2,0
167520,152.846993,239,0.2180660895833373,39,D2.25#,112,2,0
167520,152.846993,239,0.2180660895833373,46,A2.8333333333333335#,112,2,0
167520,152.846993,239,0.2180660895833373,51,D3.25#,112,2,0
168000,153.28495,239,0.2180660895833373,39,D2.25#,112,2,0
168000,153.28495,239,0.2180660895833373,46,A2.8333333333333335#,112,2,0
168000,153.28495,239,0.2180660895833373,51,D3.25#,112,2,0
168720,153.9418855,119,0.1085768395833373,37,C2.0833333333333335#,112,2,0
168720,153.9418855,119,0.1085768395833373,44,G2.6666666666666665#,112,2,0
168720,153.9418855,119,0.1085768395833373,49,C3.083333333333333#,112,2,0
168960,154.160864,239,0.2180660895833373,37,C2.0833333333333335#,112,2,0
168960,154.160864,239,0.2180660895833373,44,G2.6666666666666665#,112,2,0
168960,154.160864,239,0.2180660895833373,49,C3.083333333333333#,112,2,0
169440,154.598821,239,0.2180660895833373,37,C2.0833333333333335#,112,2,0
169440,154.598821,239,0.2180660895833373,44,G2.6666666666666665#,112,2,0
169440,154.598821,239,0.2180660895833373,49,C3.083333333333333#,112,2,0
171120,156.1316705,119,0.1085768395833373,35,B1.9166666666666665,112,2,0
171120,156.1316705,119,0.1085768395833373,42,F2.5#,112,2,0
171120,156.1316705,119,0.1085768395833373,47,B2.9166666666666665,112,2,0
171360,156.350649,239,0.2180660895833373,35,B1.9166666666666665,112,2,0
171360,156.350649,239,0.2180660895833373,42,F2.5#,112,2,0
171360,156.350649,239,0.2180660895833373,47,B2.9166666666666665,112,2,0
171840,156.788606,239,0.2180660895833373,35,B1.9166666666666665,112,2,0
171840,156.788606,239,0.2180660895833373,42,F2.5#,112,2,0
171840,156.788606,239,0.2180660895833373,47,B2.9166666666666665,112,2,0
172560,157.4455415,119,0.1085768395833373,37,C2.0833333333333335#,112,2,0
172560,157.4455415,119,0.1085768395833373,44,G2.6666666666666665#,112,2,0
172560,157.4455415,119,0.1085768395833373,49,C3.083333333333333#,112,2,0
172800,157.66452,239,0.2180660895833373,37,C2.0833333333333335#,112,2,0
172800,157.66452,239,0.2180660895833373,44,G2.6666666666666665#,112,2,0
172800,157.66452,239,0.2180660895833373,49,C3.083333333333333#,112,2,0
173280,158.102477,239,0.2180660895833373,37,C2.0833333333333335#,112,2,0
173280,158.102477,239,0.2180660895833373,44,G2.6666666666666665#,112,2,0
173280,158.102477,239,0.2180660895833373,49,C3.083333333333333#,112,2,0
174960,159.6353265,119,0.1085768395833373,39,D2.25#,112,2,0
174960,159.6353265,119,0.1085768395833373,46,A2.8333333333333335#,112,2,0
174960,159.6353265,119,0.1085768395833373,51,D3.25#,112,2,0
175200,159.854305,239,0.2180660895833373,39,D2.25#,112,2,0
175200,159.854305,239,0.2180660895833373,46,A2.8333333333333335#,112,2,0
175200,159.854305,239,0.2180660895833373,51,D3.25#,112,2,0
175680,160.292262,239,0.2180660895833373,39,D2.25#,112,2,0
175680,160.292262,239,0.2180660895833373,46,A2.8333333333333335#,112,2,0
175680,160.292262,239,0.2180660895833373,51,D3.25#,112,2,0
176400,160.9491975,119,0.1085768395833373,37,C2.0833333333333335#,112,2,0
176400,160.9491975,119,0.1085768395833373,44,G2.6666666666666665#,112,2,0
176400,160.9491975,119,0.1085768395833373,49,C3.083333333333333#,112,2,0
176640,161.168176,239,0.2180660895833373,37,C2.0833333333333335#,112,2,0
176640,161.168176,239,0.2180660895833373,44,G2.6666666666666665#,112,2,0
176640,161.168176,239,0.2180660895833373,49,C3.083333333333333#,112,2,0
177120,161.606133,239,0.2180660895833373,37,C2.0833333333333335#,112,2,0
177120,161.606133,239,0.2180660895833373,44,G2.6666666666666665#,112,2,0
177120,161.606133,239,0.2180660895833373,49,C3.083333333333333#,112,2,0
178800,163.1389825,119,0.1085768395833373,39,D2.25#,112,2,0
178800,163.1389825,119,0.1085768395833373,46,A2.8333333333333335#,112,2,0
178800,163.1389825,119,0.1085768395833373,51,D3.25#,112,2,0
179040,163.357961,239,0.2180660895833373,39,D2.25#,112,2,0
179040,163.357961,239,0.2180660895833373,46,A2.8333333333333335#,112,2,0
179040,163.357961,239,0.2180660895833373,51,D3.25#,112,2,0
179520,163.795918,239,0.2180660895833373,39,D2.25#,112,2,0
179520,163.795918,239,0.2180660895833373,46,A2.8333333333333335#,112,2,0
179520,163.795918,239,0.2180660895833373,51,D3.25#,112,2,0
180240,164.4528535,119,0.1085768395833373,37,C2.0833333333333335#,112,2,0
180240,164.4528535,119,0.1085768395833373,44,G2.6666666666666665#,112,2,0
180240,164.4528535,119,0.1085768395833373,49,C3.083333333333333#,112,2,0
180480,164.671832,239,0.2180660895833373,37,C2.0833333333333335#,112,2,0
180480,164.671832,239,0.2180660895833373,44,G2.6666666666666665#,112,2,0
180480,164.671832,239,0.2180660895833373,49,C3.083333333333333#,112,2,0
180960,165.109789,239,0.2180660895833373,37,C2.0833333333333335#,112,2,0
180960,165.109789,239,0.2180660895833373,44,G2.6666666666666665#,112,2,0
180960,165.109789,239,0.2180660895833373,49,C3.083333333333333#,112,2,0
182640,166.6426385,119,0.1085768395833373,39,D2.25#,112,2,0
182640,166.6426385,119,0.1085768395833373,46,A2.8333333333333335#,112,2,0
182640,166.6426385,119,0.1085768395833373,51,D3.25#,112,2,0
182880,166.861617,239,0.2180660895833373,39,D2.25#,112,2,0
182880,166.861617,239,0.2180660895833373,46,A2.8333333333333335#,112,2,0
182880,166.861617,239,0.2180660895833373,51,D3.25#,112,2,0
183360,167.299574,239,0.2180660895833373,39,D2.25#,112,2,0
183360,167.299574,239,0.2180660895833373,46,A2.8333333333333335#,112,2,0
183360,167.299574,239,0.2180660895833373,51,D3.25#,112,2,0
184080,167.9565095,119,0.1085768395833373,37,C2.0833333333333335#,112,2,0
184080,167.9565095,119,0.1085768395833373,44,G2.6666666666666665#,112,2,0
184080,167.9565095,119,0.1085768395833373,49,C3.083333333333333#,112,2,0
184320,168.175488,239,0.2180660895833373,37,C2.0833333333333335#,112,2,0
184320,168.175488,239,0.2180660895833373,44,G2.6666666666666665#,112,2,0
184320,168.175488,239,0.2180660895833373,49,C3.083333333333333#,112,2,0
184800,168.613445,239,0.2180660895833373,37,C2.0833333333333335#,112,2,0
184800,168.613445,239,0.2180660895833373,44,G2.6666666666666665#,112,2,0
184800,168.613445,239,0.2180660895833373,49,C3.083333333333333#,112,2,0
186480,170.1462945,119,0.1085768395833373,35,B1.9166666666666665,112,2,0
186480,170.1462945,119,0.1085768395833373,42,F2.5#,112,2,0
186480,170.1462945,119,0.1085768395833373,47,B2.9166666666666665,112,2,0
186720,170.365273,239,0.2180660895833373,35,B1.9166666666666665,112,2,0
186720,170.365273,239,0.2180660895833373,42,F2.5#,112,2,0
186720,170.365273,239,0.2180660895833373,47,B2.9166666666666665,112,2,0
187200,170.80323,239,0.2180660895833373,35,B1.9166666666666665,112,2,0
187200,170.80323,239,0.2180660895833373,42,F2.5#,112,2,0
187200,170.80323,239,0.2180660895833373,47,B2.9166666666666665,112,2,0
187920,171.4601655,119,0.1085768395833373,37,C2.0833333333333335#,112,2,0
187920,171.4601655,119,0.1085768395833373,44,G2.6666666666666665#,112,2,0
187920,171.4601655,119,0.1085768395833373,49,C3.083333333333333#,112,2,0
188160,171.679144,239,0.2180660895833373,37,C2.0833333333333335#,112,2,0
188160,171.679144,239,0.2180660895833373,44,G2.6666666666666665#,112,2,0
188160,171.679144,239,0.2180660895833373,49,C3.083333333333333#,112,2,0
188640,172.117101,239,0.2180660895833373,37,C2.0833333333333335#,112,2,0
188640,172.117101,239,0.2180660895833373,44,G2.6666666666666665#,112,2,0
188640,172.117101,239,0.2180660895833373,49,C3.083333333333333#,112,2,0
190320,173.6499505,119,0.1085768395833373,39,D2.25#,112,2,0
190320,173.6499505,119,0.1085768395833373,46,A2.8333333333333335#,112,2,0
190320,173.6499505,119,0.1085768395833373,51,D3.25#,112,2,0
190560,173.868929,239,0.2180660895833373,39,D2.25#,112,2,0
190560,173.868929,239,0.2180660895833373,46,A2.8333333333333335#,112,2,0
190560,173.868929,239,0.2180660895833373,51,D3.25#,112,2,0
191040,174.306886,239,0.2180660895833373,39,D2.25#,112,2,0
191040,174.306886,239,0.2180660895833373,46,A2.8333333333333335#,112,2,0
191040,174.306886,239,0.2180660895833373,51,D3.25#,112,2,0
191760,174.9638215,119,0.1085768395833373,37,C2.0833333333333335#,112,2,0
191760,174.9638215,119,0.1085768395833373,44,G2.6666666666666665#,112,2,0
191760,174.9638215,119,0.1085768395833373,49,C3.083333333333333#,112,2,0
192000,175.1828,239,0.2180660895833373,37,C2.0833333333333335#,112,2,0
192000,175.1828,239,0.2180660895833373,44,G2.6666666666666665#,112,2,0
192000,175.1828,239,0.2180660895833373,49,C3.083333333333333#,112,2,0
192480,175.620757,239,0.2180660895833373,37,C2.0833333333333335#,112,2,0
192480,175.620757,239,0.2180660895833373,44,G2.6666666666666665#,112,2,0
192480,175.620757,239,0.2180660895833373,49,C3.083333333333333#,112,2,0
193680,176.7156495,467,0.4260956645833254,27,D1.25#,127,2,0
193680,176.7156495,467,0.4260956645833254,39,D2.25#,127,2,0
194160,177.1536065,227,0.20711716458332538,42,F2.5#,112,2,0
194400,177.372585,227,0.20711716458332538,46,A2.8333333333333335#,112,2,0
194640,177.5915635,227,0.20711716458332538,54,F3.5#,112,2,0
194880,177.810542,683,0.6231763145833313,51,D3.25#,112,2,0
195600,178.4674775,455,0.41514673958334325,49,C3.083333333333333#,112,2,0
195600,178.4674775,455,0.41514673958334325,53,F3.416666666666667,112,2,0
196080,178.9054345,227,0.20711716458332538,51,D3.25#,112,2,0
196320,179.124413,455,0.41514673958334325,49,C3.083333333333333#,112,2,0
196800,179.56237,455,0.41514673958334325,49,C3.083333333333333#,112,2,0
197520,180.2193055,467,0.4260956645833254,39,D2.25#,127,2,0
198000,180.6572625,227,0.20711716458332538,42,F2.5#,112,2,0
198240,180.876241,227,0.20711716458332538,46,A2.8333333333333335#,112,2,0
198480,181.0952195,227,0.20711716458332538,54,F3.5#,112,2,0
198720,181.314198,683,0.6231763145833313,51,D3.25#,112,2,0
199440,181.9711335,455,0.41514673958334325,49,C3.083333333333333#,112,2,0
199440,181.9711335,455,0.41514673958334325,53,F3.416666666666667,112,2,0
199920,182.4090905,227,0.20711716458332538,51,D3.25#,112,2,0
200160,182.628069,911,0.8312058895833194,49,C3.083333333333333#,112,2,0
201360,183.7229615,467,0.4260956645833254,39,D2.25#,127,2,0
201840,184.1609185,227,0.20711716458332538,42,F2.5#,112,2,0
202080,184.379897,227,0.20711716458332538,46,A2.8333333333333335#,112,2,0
202320,184.5988755,227,0.20711716458332538,54,F3.5#,112,2,0
202560,184.817854,683,0.6231763145833313,51,D3.25#,112,2,0
203280,185.4747895,455,0.41514673958334325,49,C3.083333333333333#,112,2,0
203280,185.4747895,455,0.41514673958334325,53,F3.416666666666667,112,2,0
203760,185.9127465,227,0.20711716458332538,51,D3.25#,112,2,0
204000,186.131725,455,0.41514673958334325,49,C3.083333333333333#,112,2,0
204480,186.569682,683,0.6231763145833313,49,C3.083333333333333#,112,2,0
205200,187.2266175,467,0.4260956645833254,39,D2.25#,127,2,0
205680,187.6645745,227,0.20711716458332538,42,F2.5#,112,2,0
205920,187.883553,227,0.20711716458332538,46,A2.8333333333333335#,112,2,0
206160,188.1025315,227,0.20711716458332538,54,F3.5#,112,2,0
206400,188.32151,683,0.6231763145833313,51,D3.25#,112,2,0
207120,188.9784455,455,0.41514673958334325,49,C3.083333333333333#,112,2,0
207120,188.9784455,455,0.41514673958334325,53,F3.416666666666667,112,2,0
207600,189.4164025,227,0.20711716458332538,51,D3.25#,112,2,0
207840,189.635381,911,0.8312058895833194,49,C3.083333333333333#,112,2,0
209040,190.7302735,467,0.4260956645833254,39,D2.25#,127,2,0
209520,191.1682305,227,0.20711716458332538,42,F2.5#,112,2,0
209760,191.387209,227,0.20711716458332538,46,A2.8333333333333335#,112,2,0
210000,191.6061875,227,0.20711716458332538,54,F3.5#,112,2,0
210240,191.825166,683,0.6231763145833313,51,D3.25#,112,2,0
210960,192.4821015,455,0.41514673958334325,49,C3.083333333333333#,112,2,0
210960,192.4821015,455,0.41514673958334325,53,F3.416666666666667,112,2,0
211440,192.9200585,227,0.20711716458332538,51,D3.25#,112,2,0
211680,193.139037,455,0.41514673958334325,49,C3.083333333333333#,112,2,0
212160,193.576994,455,0.41514673958334325,49,C3.083333333333333#,112,2,0
212880,194.2339295,467,0.4260956645833254,39,D2.25#,127,2,0
213360,194.6718865,227,0.20711716458332538,42,F2.5#,112,2,0
213600,194.890865,227,0.20711716458332538,46,A2.8333333333333335#,112,2,0
213840,195.1098435,227,0.20711716458332538,54,F3.5#,112,2,0
214080,195.328822,683,0.6231763145833313,51,D3.25#,112,2,0
214800,195.9857575,455,0.41514673958334325,49,C3.083333333333333#,112,2,0
214800,195.9857575,455,0.41514673958334325,53,F3.416666666666667,112,2,0
215280,196.4237145,227,0.20711716458332538,51,D3.25#,112,2,0
215520,196.642693,911,0.8312058895833194,49,C3.083333333333333#,112,2,0
216720,197.7375855,467,0.4260956645833254,39,D2.25#,127,2,0
217200,198.1755425,227,0.20711716458332538,42,F2.5#,112,2,0
217440,198.394521,227,0.20711716458332538,46,A2.8333333333333335#,112,2,0
217680,198.6134995,227,0.20711716458332538,54,F3.5#,112,2,0
217920,198.832478,683,0.6231763145833313,51,D3.25#,112,2,0
218640,199.4894135,455,0.41514673958334325,49,C3.083333333333333#,112,2,0
218640,199.4894135,455,0.41514673958334325,53,F3.416666666666667,112,2,0
219120,199.9273705,227,0.20711716458332538,51,D3.25#,112,2,0
219360,200.146349,455,0.41514673958334325,49,C3.083333333333333#,112,2,0
219840,200.584306,683,0.6231763145833313,49,C3.083333333333333#,112,2,0
220560,201.2412415,467,0.4260956645833254,39,D2.25#,127,2,0
221040,201.6791985,227,0.20711716458332538,42,F2.5#,112,2,0
221280,201.898177,227,0.20711716458332538,46,A2.8333333333333335#,112,2,0
221520,202.1171555,227,0.20711716458332538,54,F3.5#,112,2,0
221760,202.336134,683,0.6231763145833313,51,D3.25#,112,2,0
222480,202.9930695,455,0.41514673958334325,49,C3.083333333333333#,112,2,0
222480,202.9930695,455,0.41514673958334325,53,F3.416666666666667,112,2,0
222960,203.4310265,227,0.20711716458332538,51,D3.25#,112,2,0
223200,203.650005,911,0.8312058895833194,49,C3.083333333333333#,112,2,0
224400,204.7448975,467,0.4260956645833254,39,D2.25#,127,2,0
224880,205.1828545,227,0.20711716458332538,42,F2.5#,80,2,0
225120,205.401833,227,0.20711716458332538,46,A2.8333333333333335#,80,2,0
225360,205.6208115,227,0.20711716458332538,54,F3.5#,80,2,0
225600,205.83979,683,0.6231763145833313,51,D3.25#,80,2,0
226320,206.4967255,455,0.41514673958334325,49,C3.083333333333333#,80,2,0
226320,206.4967255,455,0.41514673958334325,53,F3.416666666666667,80,2,0
226800,206.9346825,227,0.20711716458332538,51,D3.25#,80,2,0
227040,207.153661,455,0.41514673958334325,49,C3.083333333333333#,80,2,0
227520,207.591618,455,0.41514673958334325,49,C3.083333333333333#,80,2,0
228240,208.2485535,467,0.4260956645833254,39,D2.25#,96,2,0
228720,208.6865105,227,0.20711716458332538,42,F2.5#,80,2,0
228960,208.905489,227,0.20711716458332538,46,A2.8333333333333335#,80,2,0
229200,209.1244675,227,0.20711716458332538,54,F3.5#,80,2,0
229440,209.343446,683,0.6231763145833313,51,D3.25#,80,2,0
230160,210.0003815,455,0.41514673958334325,49,C3.083333333333333#,80,2,0
230160,210.0003815,455,0.41514673958334325,53,F3.416666666666667,80,2,0
230640,210.4383385,227,0.20711716458332538,51,D3.25#,80,2,0
230880,210.657317,455,0.41514673958334325,49,C3.083333333333333#,80,2,0
231360,211.095274,455,0.41514673958334325,49,C3.083333333333333#,80,2,0
232080,211.7522095,467,0.4260956645833254,39,D2.25#,96,2,0
232560,212.1901665,227,0.20711716458332538,42,F2.5#,80,2,0
232800,212.409145,227,0.20711716458332538,46,A2.8333333333333335#,80,2,0
233040,212.6281235,227,0.20711716458332538,54,F3.5#,80,2,0
233280,212.847102,683,0.6231763145833313,51,D3.25#,80,2,0
234000,213.5040375,455,0.41514673958334325,49,C3.083333333333333#,80,2,0
234000,213.5040375,455,0.41514673958334325,53,F3.416666666666667,80,2,0
234480,213.9419945,227,0.20711716458332538,51,D3.25#,80,2,0
234720,214.160973,455,0.41514673958334325,49,C3.083333333333333#,80,2,0
235200,214.59893,455,0.41514673958334325,49,C3.083333333333333#,80,2,0
235920,215.2558655,467,0.4260956645833254,39,D2.25#,96,2,0
236400,215.6938225,227,0.20711716458332538,42,F2.5#,80,2,0
236640,215.912801,227,0.20711716458332538,46,A2.8333333333333335#,80,2,0
236880,216.1317795,227,0.20711716458332538,54,F3.5#,80,2,0
237120,216.350758,683,0.6231763145833313,51,D3.25#,80,2,0
237840,217.0076935,455,0.41514673958334325,49,C3.083333333333333#,80,2,0
237840,217.0076935,455,0.41514673958334325,53,F3.416666666666667,80,2,0
238320,217.4456505,227,0.20711716458332538,51,D3.25#,80,2,0
238560,217.664629,911,0.8312058895833194,49,C3.083333333333333#,80,2,0
240000,218.9785,239,0.2180660895833373,27,D1.25#,127,2,0
240000,218.9785,239,0.2180660895833373,39,D2.25#,127,2,0
240240,219.1974785,239,0.2180660895833373,27,D1.25#,127,2,0
240240,219.1974785,239,0.2180660895833373,39,D2.25#,127,2,0
