start_ticks,start_secs,dur_ticks,dur_secs,pitch,fullNoteOctave,velocity,part,channel
0,0.0,227,0.14934188125,49,C3.083333333333333#,80,2,0
0,0.0,227,0.14934188125,56,G3.666666666666667#,80,2,0
720,0.4736835,227,0.14934188124999997,49,C3.083333333333333#,80,2,0
720,0.4736835,227,0.14934188124999997,56,G3.666666666666667#,80,2,0
1440,0.947367,227,0.14934188125000009,49,C3.083333333333333#,80,2,0
1440,0.947367,227,0.14934188125000009,56,G3.666666666666667#,80,2,0
1920,1.263156,227,0.14934188125000009,42,F2.5#,80,2,0
1920,1.263156,227,0.14934188125000009,49,C3.083333333333333#,80,2,0
2640,1.7368395,227,0.14934188125000009,42,F2.5#,80,2,0
2640,1.7368395,227,0.14934188125000009,49,C3.083333333333333#,80,2,0
3360,2.210523,227,0.14934188125000009,42,F2.5#,80,2,0
3360,2.210523,227,0.14934188125000009,49,C3.083333333333333#,80,2,0
3840,2.526312,227,0.14934188125000009,45,A2.75,80,2,0
3840,2.526312,227,0.14934188125000009,52,E3.333333333333333,80,2,0
4560,2.9999955,227,0.14934188125000009,45,A2.75,80,2,0
4560,2.9999955,227,0.14934188125000009,52,E3.333333333333333,80,2,0
5280,3.473679,227,0.14934188125000009,45,A2.75,80,2,0
5280,3.473679,227,0.14934188125000009,52,E3.333333333333333,80,2,0
5760,3.789468,227,0.14934188125000009,47,B2.9166666666666665,80,2,0
5760,3.789468,227,0.14934188125000009,54,F3.5#,80,2,0
6480,4.2631515,227,0.14934188124999961,47,B2.9166666666666665,80,2,0
6480,4.2631515,227,0.14934188124999961,54,F3.5#,80,2,0
7200,4.736835,227,0.14934188124999961,47,B2.9166666666666665,80,2,0
7200,4.736835,227,0.14934188124999961,54,F3.5#,80,2,0
7680,5.052624,227,0.14934188124999961,49,C3.083333333333333#,80,2,0
7680,5.052624,227,0.14934188124999961,56,G3.666666666666667#,80,2,0
8400,5.5263075,227,0.14934188124999961,49,C3.083333333333333#,80,2,0
8400,5.5263075,227,0.14934188124999961,56,G3.666666666666667#,80,2,0
9120,5.999991,227,0.14934188124999961,49,C3.083333333333333#,80,2,0
9120,5.999991,227,0.14934188124999961,56,G3.666666666666667#,80,2,0
9600,6.31578,227,0.14934188124999961,42,F2.5#,80,2,0
9600,6.31578,227,0.14934188124999961,49,C3.083333333333333#,80,2,0
10320,6.7894635,227,0.14934188124999961,42,F2.5#,80,2,0
10320,6.7894635,227,0.14934188124999961,49,C3.083333333333333#,80,2,0
11040,7.263147,227,0.14934188124999961,42,F2.5#,80,2,0
11040,7.263147,227,0.14934188124999961,49,C3.083333333333333#,80,2,0
11520,7.578936,227,0.14934188124999961,45,A2.75,80,2,0
11520,7.578936,227,0.14934188124999961,52,E3.333333333333333,80,2,0
12240,8.0526195,227,0.14934188124999961,45,A2.75,80,2,0
12240,8.0526195,227,0.14934188124999961,52,E3.333333333333333,80,2,0
12960,8.526303,227,0.14934188124999961,45,A2.75,80,2,0
12960,8.526303,227,0.14934188124999961,52,E3.333333333333333,80,2,0
13440,8.842092,227,0.14934188124999961,47,B2.9166666666666665,80,2,0
13440,8.842092,227,0.14934188124999961,54,F3.5#,80,2,0
14160,9.3157755,227,0.14934188124999961,47,B2.9166666666666665,80,2,0
14160,9.3157755,227,0.14934188124999961,54,F3.5#,80,2,0
14880,9.789459,227,0.14934188124999961,47,B2.9166666666666665,80,2,0
14880,9.789459,227,0.14934188124999961,54,F3.5#,80,2,0
15360,10.105248,227,0.14934188124999961,49,C3.083333333333333#,80,2,0
15360,10.105248,227,0.14934188124999961,56,G3.666666666666667#,80,2,0
16080,10.5789315,227,0.14934188124999961,49,C3.083333333333333#,80,2,0
16080,10.5789315,227,0.14934188124999961,56,G3.666666666666667#,80,2,0
16800,11.052615,227,0.14934188124999961,49,C3.083333333333333#,80,2,0
16800,11.052615,227,0.14934188124999961,56,G3.666666666666667#,80,2,0
17280,11.368404,227,0.14934188124999961,42,F2.5#,80,2,0
17280,11.368404,227,0.14934188124999961,49,C3.083333333333333#,80,2,0
18000,11.8420875,227,0.14934188124999961,42,F2.5#,80,2,0
18000,11.8420875,227,0.14934188124999961,49,C3.083333333333333#,80,2,0
18720,12.315771,227,0.14934188124999961,42,F2.5#,80,2,0
18720,12.315771,227,0.14934188124999961,49,C3.083333333333333#,80,2,0
19200,12.63156,227,0.14934188124999961,45,A2.75,80,2,0
19200,12.63156,227,0.14934188124999961,52,E3.333333333333333,80,2,0
19920,13.1052435,227,0.14934188124999961,45,A2.75,80,2,0
19920,13.1052435,227,0.14934188124999961,52,E3.333333333333333,80,2,0
20640,13.578927,227,0.14934188124999961,45,A2.75,80,2,0
20640,13.578927,227,0.14934188124999961,52,E3.333333333333333,80,2,0
21120,13.894716,227,0.14934188124999961,47,B2.9166666666666665,80,2,0
21120,13.894716,227,0.14934188124999961,54,F3.5#,80,2,0
21840,14.3683995,227,0.14934188124999961,47,B2.9166666666666665,80,2,0
21840,14.3683995,227,0.14934188124999961,54,F3.5#,80,2,0
22560,14.842083,227,0.14934188124999961,47,B2.9166666666666665,80,2,0
22560,14.842083,227,0.14934188124999961,54,F3.5#,80,2,0
23040,15.157872,227,0.14934188124999961,49,C3.083333333333333#,80,2,0
23040,15.157872,227,0.14934188124999961,56,G3.666666666666667#,80,2,0
23760,15.6315555,227,0.14934188124999961,49,C3.083333333333333#,80,2,0
23760,15.6315555,227,0.14934188124999961,56,G3.666666666666667#,80,2,0
24480,16.105239,227,0.14934188124999961,49,C3.083333333333333#,80,2,0
24480,16.105239,227,0.14934188124999961,56,G3.666666666666667#,80,2,0
24960,16.421028,227,0.14934188124999961,42,F2.5#,80,2,0
24960,16.421028,227,0.14934188124999961,49,C3.083333333333333#,80,2,0
25680,16.8947115,227,0.1493418812500015,42,F2.5#,80,2,0
25680,16.8947115,227,0.1493418812500015,49,C3.083333333333333#,80,2,0
26400,17.368395,227,0.1493418812500015,42,F2.5#,80,2,0
26400,17.368395,227,0.1493418812500015,49,C3.083333333333333#,80,2,0
26880,17.684184,227,0.1493418812500015,45,A2.75,80,2,0
26880,17.684184,227,0.1493418812500015,52,E3.333333333333333,80,2,0
27600,18.1578675,227,0.1493418812500015,45,A2.75,80,2,0
27600,18.1578675,227,0.1493418812500015,52,E3.333333333333333,80,2,0
28320,18.631551,227,0.1493418812500015,45,A2.75,80,2,0
28320,18.631551,227,0.1493418812500015,52,E3.333333333333333,80,2,0
28800,18.94734,227,0.1493418812500015,47,B2.9166666666666665,80,2,0
28800,18.94734,227,0.1493418812500015,54,F3.5#,80,2,0
29520,19.4210235,227,0.1493418812500015,47,B2.9166666666666665,80,2,0
29520,19.4210235,227,0.1493418812500015,54,F3.5#,80,2,0
30240,19.894707,227,0.1493418812500015,47,B2.9166666666666665,80,2,0
30240,19.894707,227,0.1493418812500015,54,F3.5#,80,2,0
30720,20.210496,227,0.1493418812500015,49,C3.083333333333333#,80,2,0
30720,20.210496,227,0.1493418812500015,56,G3.666666666666667#,80,2,0
31440,20.6841795,227,0.1493418812500015,49,C3.083333333333333#,80,2,0
31440,20.6841795,227,0.1493418812500015,56,G3.666666666666667#,80,2,0
32160,21.157863,227,0.1493418812500015,49,C3.083333333333333#,80,2,0
32160,21.157863,227,0.1493418812500015,56,G3.666666666666667#,80,2,0
32640,21.473652,227,0.1493418812500015,42,F2.5#,80,2,0
32640,21.473652,227,0.1493418812500015,49,C3.083333333333333#,80,2,0
33360,21.9473355,227,0.1493418812500015,42,F2.5#,80,2,0
33360,21.9473355,227,0.1493418812500015,49,C3.083333333333333#,80,2,0
34080,22.421019,227,0.1493418812500015,42,F2.5#,80,2,0
34080,22.421019,227,0.1493418812500015,49,C3.083333333333333#,80,2,0
34560,22.736808,227,0.1493418812500015,45,A2.75,80,2,0
34560,22.736808,227,0.1493418812500015,52,E3.333333333333333,80,2,0
35280,23.2104915,227,0.1493418812500015,45,A2.75,80,2,0
35280,23.2104915,227,0.1493418812500015,52,E3.333333333333333,80,2,0
36000,23.684175,227,0.1493418812500015,45,A2.75,80,2,0
36000,23.684175,227,0.1493418812500015,52,E3.333333333333333,80,2,0
36480,23.999964,227,0.1493418812500015,47,B2.9166666666666665,80,2,0
36480,23.999964,227,0.1493418812500015,54,F3.5#,80,2,0
37200,24.4736475,227,0.1493418812500015,47,B2.9166666666666665,80,2,0
37200,24.4736475,227,0.1493418812500015,54,F3.5#,80,2,0
37920,24.947331,227,0.1493418812500015,47,B2.9166666666666665,80,2,0
37920,24.947331,227,0.1493418812500015,54,F3.5#,80,2,0
38400,25.26312,227,0.1493418812500015,49,C3.083333333333333#,80,2,0
38400,25.26312,227,0.1493418812500015,56,G3.666666666666667#,80,2,0
39120,25.7368035,227,0.1493418812500015,49,C3.083333333333333#,80,2,0
39120,25.7368035,227,0.1493418812500015,56,G3.666666666666667#,80,2,0
39840,26.210487,227,0.1493418812500015,49,C3.083333333333333#,80,2,0
39840,26.210487,227,0.1493418812500015,56,G3.666666666666667#,80,2,0
40320,26.526276,227,0.1493418812500015,42,F2.5#,80,2,0
40320,26.526276,227,0.1493418812500015,49,C3.083333333333333#,80,2,0
41040,26.9999595,227,0.1493418812500015,42,F2.5#,80,2,0
41040,26.9999595,227,0.1493418812500015,49,C3.083333333333333#,80,2,0
41760,27.473643,227,0.1493418812500015,42,F2.5#,80,2,0
41760,27.473643,227,0.1493418812500015,49,C3.083333333333333#,80,2,0
42240,27.789432,227,0.1493418812500015,45,A2.75,80,2,0
42240,27.789432,227,0.1493418812500015,52,E3.333333333333333,80,2,0
42960,28.2631155,227,0.1493418812500015,45,A2.75,80,2,0
42960,28.2631155,227,0.1493418812500015,52,E3.333333333333333,80,2,0
43680,28.736799,227,0.1493418812500015,45,A2.75,80,2,0
43680,28.736799,227,0.1493418812500015,52,E3.333333333333333,80,2,0
44160,29.052588,227,0.1493418812500015,47,B2.9166666666666665,80,2,0
44160,29.052588,227,0.1493418812500015,54,F3.5#,80,2,0
44880,29.5262715,227,0.1493418812500015,47,B2.9166666666666665,80,2,0
44880,29.5262715,227,0.1493418812500015,54,F3.5#,80,2,0
45600,29.999955,227,0.1493418812500015,47,B2.9166666666666665,80,2,0
45600,29.999955,227,0.1493418812500015,54,F3.5#,80,2,0
46080,30.315744,227,0.1493418812500015,49,C3.083333333333333#,80,2,0
46080,30.315744,227,0.1493418812500015,56,G3.666666666666667#,80,2,0
46800,30.7894275,227,0.1493418812500015,49,C3.083333333333333#,80,2,0
46800,30.7894275,227,0.1493418812500015,56,G3.666666666666667#,80,2,0
47520,31.263111,227,0.1493418812500015,49,C3.083333333333333#,80,2,0
47520,31.263111,227,0.1493418812500015,56,G3.666666666666667#,80,2,0
48000,31.5789,227,0.1493418812500015,42,F2.5#,80,2,0
48000,31.5789,227,0.1493418812500015,49,C3.083333333333333#,80,2,0
48720,32.0525835,227,0.1493418812500015,42,F2.5#,80,2,0
48720,32.0525835,227,0.1493418812500015,49,C3.083333333333333#,80,2,0
49440,32.526267,227,0.1493418812500015,42,F2.5#,80,2,0
49440,32.526267,227,0.1493418812500015,49,C3.083333333333333#,80,2,0
49920,32.842056,227,0.1493418812500015,45,A2.75,80,2,0
49920,32.842056,227,0.1493418812500015,52,E3.333333333333333,80,2,0
50640,33.3157395,227,0.1493418812500015,45,A2.75,80,2,0
50640,33.3157395,227,0.1493418812500015,52,E3.333333333333333,80,2,0
51360,33.789423,227,0.1493418812500015,45,A2.75,80,2,0
51360,33.789423,227,0.1493418812500015,52,E3.333333333333333,80,2,0
51840,34.105212,227,0.1493418812500015,47,B2.9166666666666665,80,2,0
51840,34.105212,227,0.1493418812500015,54,F3.5#,80,2,0
52560,34.5788955,227,0.1493418812500015,47,B2.9166666666666665,80,2,0
52560,34.5788955,227,0.1493418812500015,54,F3.5#,80,2,0
53280,35.052579,227,0.1493418812500015,47,B2.9166666666666665,80,2,0
53280,35.052579,227,0.1493418812500015,54,F3.5#,80,2,0
53760,35.368368,227,0.1493418812500015,49,C3.083333333333333#,80,2,0
53760,35.368368,227,0.1493418812500015,56,G3.666666666666667#,80,2,0
54480,35.8420515,227,0.1493418812500015,49,C3.083333333333333#,80,2,0
54480,35.8420515,227,0.1493418812500015,56,G3.666666666666667#,80,2,0
55200,36.315735,227,0.1493418812500015,49,C3.083333333333333#,80,2,0
55200,36.315735,227,0.1493418812500015,56,G3.666666666666667#,80,2,0
55680,36.631524,227,0.1493418812500015,42,F2.5#,80,2,0
55680,36.631524,227,0.1493418812500015,49,C3.083333333333333#,80,2,0
56400,37.1052075,227,0.1493418812500015,42,F2.5#,80,2,0
56400,37.1052075,227,0.1493418812500015,49,C3.083333333333333#,80,2,0
57120,37.578891,227,0.1493418812500015,42,F2.5#,80,2,0
57120,37.578891,227,0.1493418812500015,49,C3.083333333333333#,80,2,0
57600,37.89468,227,0.1493418812500015,45,A2.75,80,2,0
57600,37.89468,227,0.1493418812500015,52,E3.333333333333333,80,2,0
58320,38.3683635,227,0.1493418812500015,45,A2.75,80,2,0
58320,38.3683635,227,0.1493418812500015,52,E3.333333333333333,80,2,0
59040,38.842047,227,0.1493418812500015,45,A2.75,80,2,0
59040,38.842047,227,0.1493418812500015,52,E3.333333333333333,80,2,0
59520,39.157836,227,0.1493418812500015,47,B2.9166666666666665,80,2,0
59520,39.157836,227,0.1493418812500015,54,F3.5#,80,2,0
60240,39.6315195,227,0.1493418812500015,47,B2.9166666666666665,80,2,0
60240,39.6315195,227,0.1493418812500015,54,F3.5#,80,2,0
60960,40.105203,227,0.1493418812500015,47,B2.9166666666666665,80,2,0
60960,40.105203,227,0.1493418812500015,54,F3.5#,80,2,0
61440,40.420992,227,0.1493418812500015,49,C3.083333333333333#,80,2,0
61440,40.420992,227,0.1493418812500015,56,G3.666666666666667#,80,2,0
62160,40.8946755,227,0.1493418812500015,49,C3.083333333333333#,80,2,0
62160,40.8946755,227,0.1493418812500015,56,G3.666666666666667#,80,2,0
62880,41.368359,227,0.1493418812500015,49,C3.083333333333333#,80,2,0
62880,41.368359,227,0.1493418812500015,56,G3.666666666666667#,80,2,0
63360,41.684148,227,0.1493418812500015,42,F2.5#,80,2,0
63360,41.684148,227,0.1493418812500015,49,C3.083333333333333#,80,2,0
64080,42.1578315,227,0.1493418812500015,42,F2.5#,80,2,0
64080,42.1578315,227,0.1493418812500015,49,C3.083333333333333#,80,2,0
64800,42.631515,227,0.1493418812500015,42,F2.5#,80,2,0
64800,42.631515,227,0.1493418812500015,49,C3.083333333333333#,80,2,0
65280,42.947304,227,0.1493418812500015,45,A2.75,80,2,0
65280,42.947304,227,0.1493418812500015,52,E3.333333333333333,80,2,0
66000,43.4209875,227,0.1493418812500015,45,A2.75,80,2,0
66000,43.4209875,227,0.1493418812500015,52,E3.333333333333333,80,2,0
66720,43.894671,227,0.1493418812500015,45,A2.75,80,2,0
66720,43.894671,227,0.1493418812500015,52,E3.333333333333333,80,2,0
67200,44.21046,227,0.1493418812500015,47,B2.9166666666666665,80,2,0
67200,44.21046,227,0.1493418812500015,54,F3.5#,80,2,0
67920,44.6841435,227,0.1493418812500015,47,B2.9166666666666665,80,2,0
67920,44.6841435,227,0.1493418812500015,54,F3.5#,80,2,0
68640,45.157827,227,0.1493418812500015,47,B2.9166666666666665,80,2,0
68640,45.157827,227,0.1493418812500015,54,F3.5#,80,2,0
69120,45.473616,227,0.1493418812500015,49,C3.083333333333333#,80,2,0
69120,45.473616,227,0.1493418812500015,56,G3.666666666666667#,80,2,0
69840,45.9472995,227,0.1493418812500015,49,C3.083333333333333#,80,2,0
69840,45.9472995,227,0.1493418812500015,56,G3.666666666666667#,80,2,0
70560,46.420983,227,0.1493418812500015,49,C3.083333333333333#,80,2,0
70560,46.420983,227,0.1493418812500015,56,G3.666666666666667#,80,2,0
71040,46.736772,227,0.1493418812500015,42,F2.5#,80,2,0
71040,46.736772,227,0.1493418812500015,49,C3.083333333333333#,80,2,0
71760,47.2104555,227,0.1493418812500015,42,F2.5#,80,2,0
71760,47.2104555,227,0.1493418812500015,49,C3.083333333333333#,80,2,0
72480,47.684139,227,0.1493418812500015,42,F2.5#,80,2,0
72480,47.684139,227,0.1493418812500015,49,C3.083333333333333#,80,2,0
72960,47.999928,227,0.1493418812500015,45,A2.75,80,2,0
72960,47.999928,227,0.1493418812500015,52,E3.333333333333333,80,2,0
73680,48.4736115,227,0.1493418812500015,45,A2.75,80,2,0
73680,48.4736115,227,0.1493418812500015,52,E3.333333333333333,80,2,0
74400,48.947295,227,0.1493418812500015,45,A2.75,80,2,0
74400,48.947295,227,0.1493418812500015,52,E3.333333333333333,80,2,0
74880,49.263084,227,0.1493418812500015,47,B2.9166666666666665,80,2,0
74880,49.263084,227,0.1493418812500015,54,F3.5#,80,2,0
76800,50.52624,227,0.1493418812500015,49,C3.083333333333333#,80,2,0
76800,50.52624,227,0.1493418812500015,56,G3.666666666666667#,80,2,0
77520,50.9999235,227,0.1493418812500015,49,C3.083333333333333#,80,2,0
77520,50.9999235,227,0.1493418812500015,56,G3.666666666666667#,80,2,0
78240,51.473607,227,0.1493418812500015,49,C3.083333333333333#,80,2,0
78240,51.473607,227,0.1493418812500015,56,G3.666666666666667#,80,2,0
78720,51.789396,227,0.1493418812500015,42,F2.5#,80,2,0
78720,51.789396,227,0.1493418812500015,49,C3.083333333333333#,80,2,0
79440,52.2630795,227,0.1493418812500015,42,F2.5#,80,2,0
79440,52.2630795,227,0.1493418812500015,49,C3.083333333333333#,80,2,0
80160,52.736763,227,0.1493418812500015,42,F2.5#,80,2,0
80160,52.736763,227,0.1493418812500015,49,C3.083333333333333#,80,2,0
80640,53.052552,227,0.1493418812500015,45,A2.75,80,2,0
80640,53.052552,227,0.1493418812500015,52,E3.333333333333333,80,2,0
81360,53.5262355,227,0.1493418812500015,45,A2.75,80,2,0
81360,53.5262355,227,0.1493418812500015,52,E3.333333333333333,80,2,0
82080,53.999919,227,0.1493418812500015,45,A2.75,80,2,0
82080,53.999919,227,0.1493418812500015,52,E3.333333333333333,80,2,0
82560,54.315708,227,0.1493418812500015,47,B2.9166666666666665,80,2,0
82560,54.315708,227,0.1493418812500015,54,F3.5#,80,2,0
83280,54.7893915,227,0.1493418812500015,47,B2.9166666666666665,80,2,0
83280,54.7893915,227,0.1493418812500015,54,F3.5#,80,2,0
84000,55.263075,227,0.1493418812500015,47,B2.9166666666666665,80,2,0
84000,55.263075,227,0.1493418812500015,54,F3.5#,80,2,0
84480,55.578864,227,0.1493418812500015,49,C3.083333333333333#,80,2,0
84480,55.578864,227,0.1493418812500015,56,G3.666666666666667#,80,2,0
85200,56.0525475,227,0.1493418812500015,49,C3.083333333333333#,80,2,0
85200,56.0525475,227,0.1493418812500015,56,G3.666666666666667#,80,2,0
85920,56.526231,227,0.1493418812500015,49,C3.083333333333333#,80,2,0
85920,56.526231,227,0.1493418812500015,56,G3.666666666666667#,80,2,0
86400,56.84202,227,0.1493418812500015,42,F2.5#,80,2,0
86400,56.84202,227,0.1493418812500015,49,C3.083333333333333#,80,2,0
87120,57.3157035,227,0.1493418812500015,42,F2.5#,80,2,0
87120,57.3157035,227,0.1493418812500015,49,C3.083333333333333#,80,2,0
87840,57.789387,227,0.1493418812500015,42,F2.5#,80,2,0
87840,57.789387,227,0.1493418812500015,49,C3.083333333333333#,80,2,0
88320,58.105176,227,0.1493418812500015,45,A2.75,80,2,0
88320,58.105176,227,0.1493418812500015,52,E3.333333333333333,80,2,0
89040,58.5788595,227,0.1493418812500015,45,A2.75,80,2,0
89040,58.5788595,227,0.1493418812500015,52,E3.333333333333333,80,2,0
89760,59.052543,227,0.1493418812500015,45,A2.75,80,2,0
89760,59.052543,227,0.1493418812500015,52,E3.333333333333333,80,2,0
90240,59.368332,227,0.1493418812500015,47,B2.9166666666666665,80,2,0
90240,59.368332,227,0.1493418812500015,54,F3.5#,80,2,0
90960,59.8420155,227,0.1493418812500015,47,B2.9166666666666665,80,2,0
90960,59.8420155,227,0.1493418812500015,54,F3.5#,80,2,0
91680,60.315699,227,0.1493418812500015,47,B2.9166666666666665,80,2,0
91680,60.315699,227,0.1493418812500015,54,F3.5#,80,2,0
92160,60.631488,227,0.1493418812500015,49,C3.083333333333333#,80,2,0
92160,60.631488,227,0.1493418812500015,56,G3.666666666666667#,80,2,0
92880,61.1051715,227,0.1493418812500015,49,C3.083333333333333#,80,2,0
92880,61.1051715,227,0.1493418812500015,56,G3.666666666666667#,80,2,0
93600,61.578855,227,0.1493418812500015,49,C3.083333333333333#,80,2,0
93600,61.578855,227,0.1493418812500015,56,G3.666666666666667#,80,2,0
94080,61.894644,227,0.1493418812500015,42,F2.5#,80,2,0
94080,61.894644,227,0.1493418812500015,49,C3.083333333333333#,80,2,0
94800,62.3683275,227,0.1493418812500015,42,F2.5#,80,2,0
94800,62.3683275,227,0.1493418812500015,49,C3.083333333333333#,80,2,0
95520,62.842011,227,0.1493418812500015,42,F2.5#,80,2,0
95520,62.842011,227,0.1493418812500015,49,C3.083333333333333#,80,2,0
96000,63.1578,227,0.1493418812500015,45,A2.75,80,2,0
96000,63.1578,227,0.1493418812500015,52,E3.333333333333333,80,2,0
96720,63.6314835,227,0.1493418812500015,45,A2.75,80,2,0
96720,63.6314835,227,0.1493418812500015,52,E3.333333333333333,80,2,0
97440,64.105167,227,0.1493418812500015,45,A2.75,80,2,0
97440,64.105167,227,0.1493418812500015,52,E3.333333333333333,80,2,0
97920,64.420956,227,0.1493418812500015,47,B2.9166666666666665,80,2,0
97920,64.420956,227,0.1493418812500015,54,F3.5#,80,2,0
98640,64.8946395,227,0.1493418812500015,47,B2.9166666666666665,80,2,0
98640,64.8946395,227,0.1493418812500015,54,F3.5#,80,2,0
99360,65.368323,227,0.1493418812500015,47,B2.9166666666666665,80,2,0
99360,65.368323,227,0.1493418812500015,54,F3.5#,80,2,0
99840,65.684112,227,0.1493418812500015,49,C3.083333333333333#,80,2,0
99840,65.684112,227,0.1493418812500015,56,G3.666666666666667#,80,2,0
100560,66.1577955,227,0.1493418812500015,49,C3.083333333333333#,80,2,0
100560,66.1577955,227,0.1493418812500015,56,G3.666666666666667#,80,2,0
101280,66.631479,227,0.1493418812500015,49,C3.083333333333333#,80,2,0
101280,66.631479,227,0.1493418812500015,56,G3.666666666666667#,80,2,0
101760,66.947268,227,0.1493418812500015,42,F2.5#,80,2,0
101760,66.947268,227,0.1493418812500015,49,C3.083333333333333#,80,2,0
102480,67.4209515,227,0.14934188124999404,42,F2.5#,80,2,0
102480,67.4209515,227,0.14934188124999404,49,C3.083333333333333#,80,2,0
103200,67.894635,227,0.14934188124999404,42,F2.5#,80,2,0
103200,67.894635,227,0.14934188124999404,49,C3.083333333333333#,80,2,0
103680,68.210424,227,0.14934188124999404,45,A2.75,80,2,0
103680,68.210424,227,0.14934188124999404,52,E3.333333333333333,80,2,0
104400,68.6841075,227,0.14934188124999404,45,A2.75,80,2,0
104400,68.6841075,227,0.14934188124999404,52,E3.333333333333333,80,2,0
105120,69.157791,227,0.14934188124999404,45,A2.75,80,2,0
105120,69.157791,227,0.14934188124999404,52,E3.333333333333333,80,2,0
105600,69.47358,227,0.14934188124999404,47,B2.9166666666666665,80,2,0
105600,69.47358,227,0.14934188124999404,54,F3.5#,80,2,0
106320,69.9472635,227,0.14934188124999404,47,B2.9166666666666665,80,2,0
106320,69.9472635,227,0.14934188124999404,54,F3.5#,80,2,0
107040,70.420947,227,0.14934188124999404,47,B2.9166666666666665,80,2,0
107040,70.420947,227,0.14934188124999404,54,F3.5#,80,2,0
107520,70.736736,227,0.14934188124999404,49,C3.083333333333333#,80,2,0
107520,70.736736,227,0.14934188124999404,56,G3.666666666666667#,80,2,0
108240,71.2104195,227,0.14934188124999404,49,C3.083333333333333#,80,2,0
108240,71.2104195,227,0.14934188124999404,56,G3.666666666666667#,80,2,0
108960,71.684103,227,0.14934188124999404,49,C3.083333333333333#,80,2,0
108960,71.684103,227,0.14934188124999404,56,G3.666666666666667#,80,2,0
109440,71.999892,227,0.14934188124999404,42,F2.5#,80,2,0
109440,71.999892,227,0.14934188124999404,49,C3.083333333333333#,80,2,0
110160,72.4735755,227,0.14934188124999404,42,F2.5#,80,2,0
110160,72.4735755,227,0.14934188124999404,49,C3.083333333333333#,80,2,0
110880,72.947259,227,0.14934188124999404,42,F2.5#,80,2,0
110880,72.947259,227,0.14934188124999404,49,C3.083333333333333#,80,2,0
111360,73.263048,227,0.14934188124999404,45,A2.75,80,2,0
111360,73.263048,227,0.14934188124999404,52,E3.333333333333333,80,2,0
112080,73.7367315,227,0.14934188124999404,45,A2.75,80,2,0
112080,73.7367315,227,0.14934188124999404,52,E3.333333333333333,80,2,0
112800,74.210415,227,0.14934188124999404,45,A2.75,80,2,0
112800,74.210415,227,0.14934188124999404,52,E3.333333333333333,80,2,0
113280,74.526204,227,0.14934188124999404,47,B2.9166666666666665,80,2,0
113280,74.526204,227,0.14934188124999404,54,F3.5#,80,2,0
114000,74.9998875,227,0.14934188124999404,47,B2.9166666666666665,80,2,0
114000,74.9998875,227,0.14934188124999404,54,F3.5#,80,2,0
114720,75.473571,227,0.14934188124999404,47,B2.9166666666666665,80,2,0
114720,75.473571,227,0.14934188124999404,54,F3.5#,80,2,0
115200,75.78936,227,0.14934188124999404,49,C3.083333333333333#,80,2,0
115200,75.78936,227,0.14934188124999404,56,G3.666666666666667#,80,2,0
115920,76.2630435,227,0.14934188124999404,49,C3.083333333333333#,80,2,0
115920,76.2630435,227,0.14934188124999404,56,G3.666666666666667#,80,2,0
116640,76.736727,227,0.14934188124999404,49,C3.083333333333333#,80,2,0
116640,76.736727,227,0.14934188124999404,56,G3.666666666666667#,80,2,0
117120,77.052516,227,0.14934188124999404,42,F2.5#,80,2,0
117120,77.052516,227,0.14934188124999404,49,C3.083333333333333#,80,2,0
117840,77.5261995,227,0.14934188124999404,42,F2.5#,80,2,0
117840,77.5261995,227,0.14934188124999404,49,C3.083333333333333#,80,2,0
118560,77.999883,227,0.14934188124999404,42,F2.5#,80,2,0
118560,77.999883,227,0.14934188124999404,49,C3.083333333333333#,80,2,0
119040,78.315672,227,0.14934188124999404,45,A2.75,80,2,0
119040,78.315672,227,0.14934188124999404,52,E3.333333333333333,80,2,0
119760,78.7893555,227,0.14934188124999404,45,A2.75,80,2,0
119760,78.7893555,227,0.14934188124999404,52,E3.333333333333333,80,2,0
120480,79.263039,227,0.14934188124999404,45,A2.75,80,2,0
120480,79.263039,227,0.14934188124999404,52,E3.333333333333333,80,2,0
120960,79.578828,227,0.14934188124999404,47,B2.9166666666666665,80,2,0
120960,79.578828,227,0.14934188124999404,54,F3.5#,80,2,0
121680,80.0525115,227,0.14934188124999404,47,B2.9166666666666665,80,2,0
121680,80.0525115,227,0.14934188124999404,54,F3.5#,80,2,0
122400,80.526195,227,0.14934188124999404,47,B2.9166666666666665,80,2,0
122400,80.526195,227,0.14934188124999404,54,F3.5#,80,2,0
122880,80.841984,227,0.14934188124999404,49,C3.083333333333333#,80,2,0
122880,80.841984,227,0.14934188124999404,56,G3.666666666666667#,80,2,0
123600,81.3156675,227,0.14934188124999404,49,C3.083333333333333#,80,2,0
123600,81.3156675,227,0.14934188124999404,56,G3.666666666666667#,80,2,0
124320,81.789351,227,0.14934188124999404,49,C3.083333333333333#,80,2,0
124320,81.789351,227,0.14934188124999404,56,G3.666666666666667#,80,2,0
124800,82.10514,227,0.14934188124999404,42,F2.5#,80,2,0
124800,82.10514,227,0.14934188124999404,49,C3.083333333333333#,80,2,0
125520,82.5788235,227,0.14934188124999404,42,F2.5#,80,2,0
125520,82.5788235,227,0.14934188124999404,49,C3.083333333333333#,80,2,0
126240,83.052507,227,0.14934188124999404,42,F2.5#,80,2,0
126240,83.052507,227,0.14934188124999404,49,C3.083333333333333#,80,2,0
126720,83.368296,227,0.14934188124999404,45,A2.75,80,2,0
126720,83.368296,227,0.14934188124999404,52,E3.333333333333333,80,2,0
127440,83.8419795,227,0.14934188124999404,45,A2.75,80,2,0
127440,83.8419795,227,0.14934188124999404,52,E3.333333333333333,80,2,0
128160,84.315663,227,0.14934188124999404,45,A2.75,80,2,0
128160,84.315663,227,0.14934188124999404,52,E3.333333333333333,80,2,0
128640,84.631452,227,0.14934188124999404,47,B2.9166666666666665,80,2,0
128640,84.631452,227,0.14934188124999404,54,F3.5#,80,2,0
129360,85.1051355,227,0.14934188124999404,47,B2.9166666666666665,80,2,0
129360,85.1051355,227,0.14934188124999404,54,F3.5#,80,2,0
130080,85.578819,227,0.14934188124999404,47,B2.9166666666666665,80,2,0
130080,85.578819,227,0.14934188124999404,54,F3.5#,80,2,0
130560,85.894608,227,0.14934188124999404,49,C3.083333333333333#,80,2,0
130560,85.894608,227,0.14934188124999404,56,G3.666666666666667#,80,2,0
131280,86.3682915,227,0.14934188124999404,49,C3.083333333333333#,80,2,0
131280,86.3682915,227,0.14934188124999404,56,G3.666666666666667#,80,2,0
132000,86.841975,227,0.14934188124999404,49,C3.083333333333333#,80,2,0
132000,86.841975,227,0.14934188124999404,56,G3.666666666666667#,80,2,0
132480,87.157764,227,0.14934188124999404,42,F2.5#,80,2,0
132480,87.157764,227,0.14934188124999404,49,C3.083333333333333#,80,2,0
133200,87.6314475,227,0.14934188124999404,42,F2.5#,80,2,0
133200,87.6314475,227,0.14934188124999404,49,C3.083333333333333#,80,2,0
133920,88.105131,227,0.14934188124999404,42,F2.5#,80,2,0
133920,88.105131,227,0.14934188124999404,49,C3.083333333333333#,80,2,0
134400,88.42092,227,0.14934188124999404,45,A2.75,80,2,0
134400,88.42092,227,0.14934188124999404,52,E3.333333333333333,80,2,0
135120,88.8946035,227,0.14934188124999404,45,A2.75,80,2,0
135120,88.8946035,227,0.14934188124999404,52,E3.333333333333333,80,2,0
135840,89.368287,227,0.14934188124999404,45,A2.75,80,2,0
135840,89.368287,227,0.14934188124999404,52,E3.333333333333333,80,2,0
136320,89.684076,227,0.14934188124999404,47,B2.9166666666666665,80,2,0
136320,89.684076,227,0.14934188124999404,54,F3.5#,80,2,0
137040,90.1577595,227,0.14934188124999404,47,B2.9166666666666665,80,2,0
137040,90.1577595,227,0.14934188124999404,54,F3.5#,80,2,0
137760,90.631443,227,0.14934188124999404,47,B2.9166666666666665,80,2,0
137760,90.631443,227,0.14934188124999404,54,F3.5#,80,2,0
138240,90.947232,227,0.14934188124999404,49,C3.083333333333333#,80,2,0
138240,90.947232,227,0.14934188124999404,56,G3.666666666666667#,80,2,0
138960,91.4209155,227,0.14934188124999404,49,C3.083333333333333#,80,2,0
138960,91.4209155,227,0.14934188124999404,56,G3.666666666666667#,80,2,0
139680,91.894599,227,0.14934188124999404,49,C3.083333333333333#,80,2,0
139680,91.894599,227,0.14934188124999404,56,G3.666666666666667#,80,2,0
140160,92.210388,227,0.14934188124999404,42,F2.5#,80,2,0
140160,92.210388,227,0.14934188124999404,49,C3.083333333333333#,80,2,0
140880,92.6840715,227,0.14934188124999404,42,F2.5#,80,2,0
140880,92.6840715,227,0.14934188124999404,49,C3.083333333333333#,80,2,0
141600,93.157755,227,0.14934188124999404,42,F2.5#,80,2,0
141600,93.157755,227,0.14934188124999404,49,C3.083333333333333#,80,2,0
142080,93.473544,227,0.14934188124999404,45,A2.75,80,2,0
142080,93.473544,227,0.14934188124999404,52,E3.333333333333333,80,2,0
142800,93.9472275,227,0.14934188124999404,45,A2.75,80,2,0
142800,93.9472275,227,0.14934188124999404,52,E3.333333333333333,80,2,0
143520,94.420911,227,0.14934188124999404,45,A2.75,80,2,0
143520,94.420911,227,0.14934188124999404,52,E3.333333333333333,80,2,0
144000,94.7367,227,0.14934188124999404,47,B2.9166666666666665,80,2,0
144000,94.7367,227,0.14934188124999404,54,F3.5#,80,2,0
144720,95.2103835,227,0.14934188124999404,47,B2.9166666666666665,80,2,0
144720,95.2103835,227,0.14934188124999404,54,F3.5#,80,2,0
145440,95.684067,227,0.14934188124999404,47,B2.9166666666666665,80,2,0
145440,95.684067,227,0.14934188124999404,54,F3.5#,80,2,0
145920,95.999856,227,0.14934188124999404,49,C3.083333333333333#,80,2,0
145920,95.999856,227,0.14934188124999404,56,G3.666666666666667#,80,2,0
146640,96.4735395,227,0.14934188124999404,49,C3.083333333333333#,80,2,0
146640,96.4735395,227,0.14934188124999404,56,G3.666666666666667#,80,2,0
147360,96.947223,227,0.14934188124999404,49,C3.083333333333333#,80,2,0
147360,96.947223,227,0.14934188124999404,56,G3.666666666666667#,80,2,0
147840,97.263012,227,0.14934188124999404,42,F2.5#,80,2,0
147840,97.263012,227,0.14934188124999404,49,C3.083333333333333#,80,2,0
148560,97.7366955,227,0.14934188124999404,42,F2.5#,80,2,0
148560,97.7366955,227,0.14934188124999404,49,C3.083333333333333#,80,2,0
149280,98.210379,227,0.14934188124999404,42,F2.5#,80,2,0
149280,98.210379,227,0.14934188124999404,49,C3.083333333333333#,80,2,0
149760,98.526168,227,0.14934188124999404,45,A2.75,80,2,0
149760,98.526168,227,0.14934188124999404,52,E3.333333333333333,80,2,0
150480,98.9998515,227,0.14934188124999404,45,A2.75,80,2,0
150480,98.9998515,227,0.14934188124999404,52,E3.333333333333333,80,2,0
151200,99.473535,227,0.14934188124999404,45,A2.75,80,2,0
151200,99.473535,227,0.14934188124999404,52,E3.333333333333333,80,2,0
151680,99.789324,227,0.14934188124999404,47,B2.9166666666666665,80,2,0
151680,99.789324,227,0.14934188124999404,54,F3.5#,80,2,0
152400,100.2630075,227,0.14934188124999404,47,B2.9166666666666665,80,2,0
152400,100.2630075,227,0.14934188124999404,54,F3.5#,80,2,0
153120,100.736691,227,0.14934188124999404,47,B2.9166666666666665,80,2,0
153120,100.736691,227,0.14934188124999404,54,F3.5#,80,2,0
153600,101.05248,227,0.14934188124999404,49,C3.083333333333333#,80,2,0
153600,101.05248,227,0.14934188124999404,56,G3.666666666666667#,80,2,0
154320,101.5261635,227,0.14934188124999404,49,C3.083333333333333#,80,2,0
154320,101.5261635,227,0.14934188124999404,56,G3.666666666666667#,80,2,0
155040,101.999847,227,0.14934188124999404,49,C3.083333333333333#,80,2,0
155040,101.999847,227,0.14934188124999404,56,G3.666666666666667#,80,2,0
155520,102.315636,227,0.14934188124999404,42,F2.5#,80,2,0
155520,102.315636,227,0.14934188124999404,49,C3.083333333333333#,80,2,0
156240,102.7893195,227,0.14934188124999404,42,F2.5#,80,2,0
156240,102.7893195,227,0.14934188124999404,49,C3.083333333333333#,80,2,0
156960,103.263003,227,0.14934188124999404,42,F2.5#,80,2,0
156960,103.263003,227,0.14934188124999404,49,C3.083333333333333#,80,2,0
157440,103.578792,227,0.14934188124999404,45,A2.75,80,2,0
157440,103.578792,227,0.14934188124999404,52,E3.333333333333333,80,2,0
158160,104.0524755,227,0.14934188124999404,45,A2.75,80,2,0
158160,104.0524755,227,0.14934188124999404,52,E3.333333333333333,80,2,0
158880,104.526159,227,0.14934188124999404,45,A2.75,80,2,0
158880,104.526159,227,0.14934188124999404,52,E3.333333333333333,80,2,0
159360,104.841948,227,0.14934188124999404,47,B2.9166666666666665,80,2,0
159360,104.841948,227,0.14934188124999404,54,F3.5#,80,2,0
160080,105.3156315,227,0.14934188124999404,47,B2.9166666666666665,80,2,0
160080,105.3156315,227,0.14934188124999404,54,F3.5#,80,2,0
160800,105.789315,227,0.14934188124999404,47,B2.9166666666666665,80,2,0
160800,105.789315,227,0.14934188124999404,54,F3.5#,80,2,0
161280,106.105104,227,0.14934188124999404,49,C3.083333333333333#,80,2,0
161280,106.105104,227,0.14934188124999404,56,G3.666666666666667#,80,2,0
162000,106.5787875,227,0.14934188124999404,49,C3.083333333333333#,80,2,0
162000,106.5787875,227,0.14934188124999404,56,G3.666666666666667#,80,2,0
162720,107.052471,227,0.14934188124999404,49,C3.083333333333333#,80,2,0
162720,107.052471,227,0.14934188124999404,56,G3.666666666666667#,80,2,0
163200,107.36826,227,0.14934188124999404,42,F2.5#,80,2,0
163200,107.36826,227,0.14934188124999404,49,C3.083333333333333#,80,2,0
163920,107.8419435,227,0.14934188124999404,42,F2.5#,80,2,0
163920,107.8419435,227,0.14934188124999404,49,C3.083333333333333#,80,2,0
164640,108.315627,227,0.14934188124999404,42,F2.5#,80,2,0
164640,108.315627,227,0.14934188124999404,49,C3.083333333333333#,80,2,0
165120,108.631416,227,0.14934188124999404,45,A2.75,80,2,0
165120,108.631416,227,0.14934188124999404,52,E3.333333333333333,80,2,0
165840,109.1050995,227,0.14934188124999404,45,A2.75,80,2,0
165840,109.1050995,227,0.14934188124999404,52,E3.333333333333333,80,2,0
166560,109.578783,227,0.14934188124999404,45,A2.75,80,2,0
166560,109.578783,227,0.14934188124999404,52,E3.333333333333333,80,2,0
167040,109.894572,227,0.14934188124999404,47,B2.9166666666666665,80,2,0
167040,109.894572,227,0.14934188124999404,54,F3.5#,80,2,0
167760,110.3682555,227,0.14934188124999404,47,B2.9166666666666665,80,2,0
167760,110.3682555,227,0.14934188124999404,54,F3.5#,80,2,0
168480,110.841939,227,0.14934188124999404,47,B2.9166666666666665,80,2,0
168480,110.841939,227,0.14934188124999404,54,F3.5#,80,2,0
168960,111.157728,227,0.14934188124999404,49,C3.083333333333333#,80,2,0
168960,111.157728,227,0.14934188124999404,56,G3.666666666666667#,80,2,0
169680,111.6314115,227,0.14934188124999404,49,C3.083333333333333#,80,2,0
169680,111.6314115,227,0.14934188124999404,56,G3.666666666666667#,80,2,0
170400,112.105095,227,0.14934188124999404,49,C3.083333333333333#,80,2,0
170400,112.105095,227,0.14934188124999404,56,G3.666666666666667#,80,2,0
170880,112.420884,227,0.14934188124999404,42,F2.5#,80,2,0
170880,112.420884,227,0.14934188124999404,49,C3.083333333333333#,80,2,0
171600,112.8945675,227,0.14934188124999404,42,F2.5#,80,2,0
171600,112.8945675,227,0.14934188124999404,49,C3.083333333333333#,80,2,0
172320,113.368251,227,0.14934188124999404,42,F2.5#,80,2,0
172320,113.368251,227,0.14934188124999404,49,C3.083333333333333#,80,2,0
172800,113.68404,227,0.14934188124999404,45,A2.75,80,2,0
172800,113.68404,227,0.14934188124999404,52,E3.333333333333333,80,2,0
173520,114.1577235,227,0.14934188124999404,45,A2.75,80,2,0
173520,114.1577235,227,0.14934188124999404,52,E3.333333333333333,80,2,0
174240,114.631407,227,0.14934188124999404,45,A2.75,80,2,0
174240,114.631407,227,0.14934188124999404,52,E3.333333333333333,80,2,0
174720,114.947196,227,0.14934188124999404,47,B2.9166666666666665,80,2,0
174720,114.947196,227,0.14934188124999404,54,F3.5#,80,2,0
175440,115.4208795,227,0.14934188124999404,47,B2.9166666666666665,80,2,0
175440,115.4208795,227,0.14934188124999404,54,F3.5#,80,2,0
176160,115.894563,227,0.14934188124999404,47,B2.9166666666666665,80,2,0
176160,115.894563,227,0.14934188124999404,54,F3.5#,80,2,0
176640,116.210352,227,0.14934188124999404,49,C3.083333333333333#,80,2,0
176640,116.210352,227,0.14934188124999404,56,G3.666666666666667#,80,2,0
177360,116.6840355,227,0.14934188124999404,49,C3.083333333333333#,80,2,0
177360,116.6840355,227,0.14934188124999404,56,G3.666666666666667#,80,2,0
178080,117.157719,227,0.14934188124999404,49,C3.083333333333333#,80,2,0
178080,117.157719,227,0.14934188124999404,56,G3.666666666666667#,80,2,0
178560,117.473508,227,0.14934188124999404,42,F2.5#,80,2,0
178560,117.473508,227,0.14934188124999404,49,C3.083333333333333#,80,2,0
179280,117.9471915,227,0.14934188124999404,42,F2.5#,80,2,0
179280,117.9471915,227,0.14934188124999404,49,C3.083333333333333#,80,2,0
180000,118.420875,227,0.14934188124999404,42,F2.5#,80,2,0
180000,118.420875,227,0.14934188124999404,49,C3.083333333333333#,80,2,0
180480,118.736664,227,0.14934188124999404,45,A2.75,80,2,0
180480,118.736664,227,0.14934188124999404,52,E3.333333333333333,80,2,0
181200,119.2103475,227,0.14934188124999404,45,A2.75,80,2,0
181200,119.2103475,227,0.14934188124999404,52,E3.333333333333333,80,2,0
181920,119.684031,227,0.14934188124999404,45,A2.75,80,2,0
181920,119.684031,227,0.14934188124999404,52,E3.333333333333333,80,2,0
182400,119.99982,227,0.14934188124999404,47,B2.9166666666666665,80,2,0
182400,119.99982,227,0.14934188124999404,54,F3.5#,80,2,0
183120,120.4735035,227,0.14934188124999404,47,B2.9166666666666665,80,2,0
183120,120.4735035,227,0.14934188124999404,54,F3.5#,80,2,0
183840,120.947187,227,0.14934188124999404,47,B2.9166666666666665,80,2,0
183840,120.947187,227,0.14934188124999404,54,F3.5#,80,2,0
184320,121.262976,227,0.14934188124999404,49,C3.083333333333333#,80,2,0
184320,121.262976,227,0.14934188124999404,56,G3.666666666666667#,80,2,0
185040,121.7366595,227,0.14934188124999404,49,C3.083333333333333#,80,2,0
185040,121.7366595,227,0.14934188124999404,56,G3.666666666666667#,80,2,0
185760,122.210343,227,0.14934188124999404,49,C3.083333333333333#,80,2,0
185760,122.210343,227,0.14934188124999404,56,G3.666666666666667#,80,2,0
186240,122.526132,227,0.14934188124999404,42,F2.5#,80,2,0
186240,122.526132,227,0.14934188124999404,49,C3.083333333333333#,80,2,0
186960,122.9998155,227,0.14934188124999404,42,F2.5#,80,2,0
186960,122.9998155,227,0.14934188124999404,49,C3.083333333333333#,80,2,0
187680,123.473499,227,0.14934188124999404,42,F2.5#,80,2,0
187680,123.473499,227,0.14934188124999404,49,C3.083333333333333#,80,2,0
188160,123.789288,227,0.14934188124999404,45,A2.75,80,2,0
188160,123.789288,227,0.14934188124999404,52,E3.333333333333333,80,2,0
188880,124.2629715,227,0.14934188124999404,45,A2.75,80,2,0
188880,124.2629715,227,0.14934188124999404,52,E3.333333333333333,80,2,0
189600,124.736655,227,0.14934188124999404,45,A2.75,80,2,0
189600,124.736655,227,0.14934188124999404,52,E3.333333333333333,80,2,0
190080,125.052444,227,0.14934188124999404,47,B2.9166666666666665,80,2,0
190080,125.052444,227,0.14934188124999404,54,F3.5#,80,2,0
190800,125.5261275,227,0.14934188124999404,47,B2.9166666666666665,80,2,0
190800,125.5261275,227,0.14934188124999404,54,F3.5#,80,2,0
191520,125.999811,227,0.14934188124999404,47,B2.9166666666666665,80,2,0
191520,125.999811,227,0.14934188124999404,54,F3.5#,80,2,0
192000,126.3156,227,0.14934188124999404,49,C3.083333333333333#,80,2,0
192000,126.3156,227,0.14934188124999404,56,G3.666666666666667#,80,2,0
192720,126.7892835,227,0.14934188124999404,49,C3.083333333333333#,80,2,0
192720,126.7892835,227,0.14934188124999404,56,G3.666666666666667#,80,2,0
193440,127.262967,227,0.14934188124999404,49,C3.083333333333333#,80,2,0
193440,127.262967,227,0.14934188124999404,56,G3.666666666666667#,80,2,0
193920,127.578756,227,0.14934188124999404,42,F2.5#,80,2,0
193920,127.578756,227,0.14934188124999404,49,C3.083333333333333#,80,2,0
194640,128.0524395,227,0.14934188124999404,42,F2.5#,80,2,0
194640,128.0524395,227,0.14934188124999404,49,C3.083333333333333#,80,2,0
195360,128.526123,227,0.14934188124999404,42,F2.5#,80,2,0
195360,128.526123,227,0.14934188124999404,49,C3.083333333333333#,80,2,0
195840,128.841912,227,0.14934188124999404,45,A2.75,80,2,0
195840,128.841912,227,0.14934188124999404,52,E3.333333333333333,80,2,0
196560,129.3155955,227,0.14934188124999404,45,A2.75,80,2,0
196560,129.3155955,227,0.14934188124999404,52,E3.333333333333333,80,2,0
197280,129.789279,227,0.14934188124999404,45,A2.75,80,2,0
197280,129.789279,227,0.14934188124999404,52,E3.333333333333333,80,2,0
197760,130.105068,227,0.14934188124999404,47,B2.9166666666666665,80,2,0
197760,130.105068,227,0.14934188124999404,54,F3.5#,80,2,0
199680,131.368224,227,0.14934188124999404,49,C3.083333333333333#,80,2,0
199680,131.368224,227,0.14934188124999404,56,G3.666666666666667#,80,2,0
200400,131.8419075,227,0.14934188124999404,49,C3.083333333333333#,80,2,0
200400,131.8419075,227,0.14934188124999404,56,G3.666666666666667#,80,2,0
201120,132.315591,227,0.14934188124999404,49,C3.083333333333333#,80,2,0
201120,132.315591,227,0.14934188124999404,56,G3.666666666666667#,80,2,0
201600,132.63138,227,0.14934188124999404,42,F2.5#,80,2,0
201600,132.63138,227,0.14934188124999404,49,C3.083333333333333#,80,2,0
202320,133.1050635,227,0.14934188124999404,42,F2.5#,80,2,0
202320,133.1050635,227,0.14934188124999404,49,C3.083333333333333#,80,2,0
203040,133.578747,227,0.14934188124999404,42,F2.5#,80,2,0
203040,133.578747,227,0.14934188124999404,49,C3.083333333333333#,80,2,0
203520,133.894536,227,0.14934188124999404,45,A2.75,80,2,0
203520,133.894536,227,0.14934188124999404,52,E3.333333333333333,80,2,0
204240,134.3682195,227,0.14934188124999404,45,A2.75,80,2,0
204240,134.3682195,227,0.14934188124999404,52,E3.333333333333333,80,2,0
204960,134.841903,227,0.14934188124999404,45,A2.75,80,2,0
204960,134.841903,227,0.14934188124999404,52,E3.333333333333333,80,2,0
205440,135.157692,227,0.14934188124999404,47,B2.9166666666666665,80,2,0
205440,135.157692,227,0.14934188124999404,54,F3.5#,80,2,0
206160,135.6313755,227,0.14934188124999404,47,B2.9166666666666665,80,2,0
206160,135.6313755,227,0.14934188124999404,54,F3.5#,80,2,0
206880,136.105059,227,0.14934188124999404,47,B2.9166666666666665,80,2,0
206880,136.105059,227,0.14934188124999404,54,F3.5#,80,2,0
207360,136.420848,227,0.14934188124999404,49,C3.083333333333333#,80,2,0
207360,136.420848,227,0.14934188124999404,56,G3.666666666666667#,80,2,0
208080,136.8945315,227,0.14934188124999404,49,C3.083333333333333#,80,2,0
208080,136.8945315,227,0.14934188124999404,56,G3.666666666666667#,80,2,0
208800,137.368215,227,0.14934188124999404,49,C3.083333333333333#,80,2,0
208800,137.368215,227,0.14934188124999404,56,G3.666666666666667#,80,2,0
209280,137.684004,227,0.14934188124999404,42,F2.5#,80,2,0
209280,137.684004,227,0.14934188124999404,49,C3.083333333333333#,80,2,0
210000,138.1576875,227,0.14934188124999404,42,F2.5#,80,2,0
210000,138.1576875,227,0.14934188124999404,49,C3.083333333333333#,80,2,0
210720,138.631371,227,0.14934188124999404,42,F2.5#,80,2,0
210720,138.631371,227,0.14934188124999404,49,C3.083333333333333#,80,2,0
211200,138.94716,227,0.14934188124999404,45,A2.75,80,2,0
211200,138.94716,227,0.14934188124999404,52,E3.333333333333333,80,2,0
211920,139.4208435,227,0.14934188124999404,45,A2.75,80,2,0
211920,139.4208435,227,0.14934188124999404,52,E3.333333333333333,80,2,0
212640,139.894527,227,0.14934188124999404,45,A2.75,80,2,0
212640,139.894527,227,0.14934188124999404,52,E3.333333333333333,80,2,0
213120,140.210316,227,0.14934188124999404,47,B2.9166666666666665,80,2,0
213120,140.210316,227,0.14934188124999404,54,F3.5#,80,2,0
213840,140.6839995,227,0.14934188124999404,47,B2.9166666666666665,80,2,0
213840,140.6839995,227,0.14934188124999404,54,F3.5#,80,2,0
214560,141.157683,227,0.14934188124999404,47,B2.9166666666666665,80,2,0
214560,141.157683,227,0.14934188124999404,54,F3.5#,80,2,0
215040,141.473472,227,0.14934188124999404,49,C3.083333333333333#,80,2,0
215040,141.473472,227,0.14934188124999404,56,G3.666666666666667#,80,2,0
215760,141.9471555,227,0.14934188124999404,49,C3.083333333333333#,80,2,0
215760,141.9471555,227,0.14934188124999404,56,G3.666666666666667#,80,2,0
216480,142.420839,227,0.14934188124999404,49,C3.083333333333333#,80,2,0
216480,142.420839,227,0.14934188124999404,56,G3.666666666666667#,80,2,0
216960,142.736628,227,0.14934188124999404,42,F2.5#,80,2,0
216960,142.736628,227,0.14934188124999404,49,C3.083333333333333#,80,2,0
217680,143.2103115,227,0.14934188124999404,42,F2.5#,80,2,0
217680,143.2103115,227,0.14934188124999404,49,C3.083333333333333#,80,2,0
218400,143.683995,227,0.14934188124999404,42,F2.5#,80,2,0
218400,143.683995,227,0.14934188124999404,49,C3.083333333333333#,80,2,0
218880,143.999784,227,0.14934188124999404,45,A2.75,80,2,0
218880,143.999784,227,0.14934188124999404,52,E3.333333333333333,80,2,0
219600,144.4734675,227,0.14934188124999404,45,A2.75,80,2,0
219600,144.4734675,227,0.14934188124999404,52,E3.333333333333333,80,2,0
220320,144.947151,227,0.14934188124999404,45,A2.75,80,2,0
220320,144.947151,227,0.14934188124999404,52,E3.333333333333333,80,2,0
220800,145.26294,227,0.14934188124999404,47,B2.9166666666666665,80,2,0
220800,145.26294,227,0.14934188124999404,54,F3.5#,80,2,0
221520,145.7366235,227,0.14934188124999404,47,B2.9166666666666665,80,2,0
221520,145.7366235,227,0.14934188124999404,54,F3.5#,80,2,0
222240,146.210307,227,0.14934188124999404,47,B2.9166666666666665,80,2,0
222240,146.210307,227,0.14934188124999404,54,F3.5#,80,2,0
222720,146.526096,227,0.14934188124999404,49,C3.083333333333333#,80,2,0
222720,146.526096,227,0.14934188124999404,56,G3.666666666666667#,80,2,0
223440,146.9997795,227,0.14934188124999404,49,C3.083333333333333#,80,2,0
223440,146.9997795,227,0.14934188124999404,56,G3.666666666666667#,80,2,0
224160,147.473463,227,0.14934188124999404,49,C3.083333333333333#,80,2,0
224160,147.473463,227,0.14934188124999404,56,G3.666666666666667#,80,2,0
224640,147.789252,227,0.14934188124999404,42,F2.5#,80,2,0
224640,147.789252,227,0.14934188124999404,49,C3.083333333333333#,80,2,0
225360,148.2629355,227,0.14934188124999404,42,F2.5#,80,2,0
225360,148.2629355,227,0.14934188124999404,49,C3.083333333333333#,80,2,0
226080,148.736619,227,0.14934188124999404,42,F2.5#,80,2,0
226080,148.736619,227,0.14934188124999404,49,C3.083333333333333#,80,2,0
226560,149.052408,227,0.14934188124999404,45,A2.75,80,2,0
226560,149.052408,227,0.14934188124999404,52,E3.333333333333333,80,2,0
227280,149.5260915,227,0.14934188124999404,45,A2.75,80,2,0
227280,149.5260915,227,0.14934188124999404,52,E3.333333333333333,80,2,0
228000,149.999775,227,0.14934188124999404,45,A2.75,80,2,0
228000,149.999775,227,0.14934188124999404,52,E3.333333333333333,80,2,0
228480,150.315564,227,0.14934188124999404,47,B2.9166666666666665,80,2,0
228480,150.315564,227,0.14934188124999404,54,F3.5#,80,2,0
229200,150.7892475,227,0.14934188124999404,47,B2.9166666666666665,80,2,0
229200,150.7892475,227,0.14934188124999404,54,F3.5#,80,2,0
229920,151.262931,227,0.14934188124999404,47,B2.9166666666666665,80,2,0
229920,151.262931,227,0.14934188124999404,54,F3.5#,80,2,0
230400,151.57872,227,0.14934188124999404,49,C3.083333333333333#,80,2,0
230400,151.57872,227,0.14934188124999404,56,G3.666666666666667#,80,2,0
231120,152.0524035,227,0.14934188124999404,49,C3.083333333333333#,80,2,0
231120,152.0524035,227,0.14934188124999404,56,G3.666666666666667#,80,2,0
231840,152.526087,227,0.14934188124999404,49,C3.083333333333333#,80,2,0
231840,152.526087,227,0.14934188124999404,56,G3.666666666666667#,80,2,0
232320,152.841876,227,0.14934188124999404,42,F2.5#,80,2,0
232320,152.841876,227,0.14934188124999404,49,C3.083333333333333#,80,2,0
233040,153.3155595,227,0.14934188124999404,42,F2.5#,80,2,0
233040,153.3155595,227,0.14934188124999404,49,C3.083333333333333#,80,2,0
233760,153.789243,227,0.14934188124999404,42,F2.5#,80,2,0
233760,153.789243,227,0.14934188124999404,49,C3.083333333333333#,80,2,0
234240,154.105032,227,0.14934188124999404,45,A2.75,80,2,0
234240,154.105032,227,0.14934188124999404,52,E3.333333333333333,80,2,0
234960,154.5787155,227,0.14934188124999404,45,A2.75,80,2,0
234960,154.5787155,227,0.14934188124999404,52,E3.333333333333333,80,2,0
235680,155.052399,227,0.14934188124999404,45,A2.75,80,2,0
235680,155.052399,227,0.14934188124999404,52,E3.333333333333333,80,2,0
236160,155.368188,227,0.14934188124999404,47,B2.9166666666666665,80,2,0
236160,155.368188,227,0.14934188124999404,54,F3.5#,80,2,0
236880,155.8418715,227,0.14934188124999404,47,B2.9166666666666665,80,2,0
236880,155.8418715,227,0.14934188124999404,54,F3.5#,80,2,0
237600,156.315555,227,0.14934188124999404,47,B2.9166666666666665,80,2,0
237600,156.315555,227,0.14934188124999404,54,F3.5#,80,2,0
238080,156.631344,227,0.14934188124999404,49,C3.083333333333333#,80,2,0
238080,156.631344,227,0.14934188124999404,56,G3.666666666666667#,80,2,0
238800,157.1050275,227,0.14934188124999404,49,C3.083333333333333#,80,2,0
238800,157.1050275,227,0.14934188124999404,56,G3.666666666666667#,80,2,0
239520,157.578711,227,0.14934188124999404,49,C3.083333333333333#,80,2,0
239520,157.578711,227,0.14934188124999404,56,G3.666666666666667#,80,2,0
240000,157.8945,227,0.14934188124999404,42,F2.5#,80,2,0
240000,157.8945,227,0.14934188124999404,49,C3.083333333333333#,80,2,0
240720,158.3681835,227,0.14934188124999404,42,F2.5#,80,2,0
240720,158.3681835,227,0.14934188124999404,49,C3.083333333333333#,80,2,0
241440,158.841867,227,0.14934188124999404,42,F2.5#,80,2,0
241440,158.841867,227,0.14934188124999404,49,C3.083333333333333#,80,2,0
241920,159.157656,227,0.14934188124999404,45,A2.75,80,2,0
241920,159.157656,227,0.14934188124999404,52,E3.333333333333333,80,2,0
242640,159.6313395,227,0.14934188124999404,45,A2.75,80,2,0
242640,159.6313395,227,0.14934188124999404,52,E3.333333333333333,80,2,0
243360,160.105023,227,0.14934188124999404,45,A2.75,80,2,0
243360,160.105023,227,0.14934188124999404,52,E3.333333333333333,80,2,0
243840,160.420812,227,0.14934188124999404,47,B2.9166666666666665,80,2,0
243840,160.420812,227,0.14934188124999404,54,F3.5#,80,2,0
244560,160.8944955,227,0.14934188124999404,47,B2.9166666666666665,80,2,0
244560,160.8944955,227,0.14934188124999404,54,F3.5#,80,2,0
245280,161.368179,227,0.14934188124999404,47,B2.9166666666666665,80,2,0
245280,161.368179,227,0.14934188124999404,54,F3.5#,80,2,0
245760,161.683968,227,0.14934188124999404,49,C3.083333333333333#,80,2,0
245760,161.683968,227,0.14934188124999404,56,G3.666666666666667#,80,2,0
246480,162.1576515,227,0.14934188124999404,49,C3.083333333333333#,80,2,0
246480,162.1576515,227,0.14934188124999404,56,G3.666666666666667#,80,2,0
247200,162.631335,227,0.14934188124999404,49,C3.083333333333333#,80,2,0
247200,162.631335,227,0.14934188124999404,56,G3.666666666666667#,80,2,0
247680,162.947124,227,0.14934188124999404,42,F2.5#,80,2,0
247680,162.947124,227,0.14934188124999404,49,C3.083333333333333#,80,2,0
248400,163.4208075,227,0.14934188124999404,42,F2.5#,80,2,0
248400,163.4208075,227,0.14934188124999404,49,C3.083333333333333#,80,2,0
249120,163.894491,227,0.14934188124999404,42,F2.5#,80,2,0
249120,163.894491,227,0.14934188124999404,49,C3.083333333333333#,80,2,0
249600,164.21028,227,0.14934188124999404,45,A2.75,80,2,0
249600,164.21028,227,0.14934188124999404,52,E3.333333333333333,80,2,0
250320,164.6839635,227,0.14934188124999404,45,A2.75,80,2,0
250320,164.6839635,227,0.14934188124999404,52,E3.333333333333333,80,2,0
251040,165.157647,227,0.14934188124999404,45,A2.75,80,2,0
251040,165.157647,227,0.14934188124999404,52,E3.333333333333333,80,2,0
251520,165.473436,227,0.14934188124999404,47,B2.9166666666666665,80,2,0
251520,165.473436,227,0.14934188124999404,54,F3.5#,80,2,0
252240,165.9471195,227,0.14934188124999404,47,B2.9166666666666665,80,2,0
252240,165.9471195,227,0.14934188124999404,54,F3.5#,80,2,0
252960,166.420803,227,0.14934188124999404,47,B2.9166666666666665,80,2,0
252960,166.420803,227,0.14934188124999404,54,F3.5#,80,2,0
253440,166.736592,227,0.14934188124999404,49,C3.083333333333333#,80,2,0
253440,166.736592,227,0.14934188124999404,56,G3.666666666666667#,80,2,0
254160,167.2102755,227,0.14934188124999404,49,C3.083333333333333#,80,2,0
254160,167.2102755,227,0.14934188124999404,56,G3.666666666666667#,80,2,0
254880,167.683959,227,0.14934188124999404,49,C3.083333333333333#,80,2,0
254880,167.683959,227,0.14934188124999404,56,G3.666666666666667#,80,2,0
255360,167.999748,227,0.14934188124999404,42,F2.5#,80,2,0
255360,167.999748,227,0.14934188124999404,49,C3.083333333333333#,80,2,0
256080,168.4734315,227,0.14934188124999404,42,F2.5#,80,2,0
256080,168.4734315,227,0.14934188124999404,49,C3.083333333333333#,80,2,0
256800,168.947115,227,0.14934188124999404,42,F2.5#,80,2,0
256800,168.947115,227,0.14934188124999404,49,C3.083333333333333#,80,2,0
257280,169.262904,227,0.14934188124999404,45,A2.75,80,2,0
257280,169.262904,227,0.14934188124999404,52,E3.333333333333333,80,2,0
258000,169.7365875,227,0.14934188124999404,45,A2.75,80,2,0
258000,169.7365875,227,0.14934188124999404,52,E3.333333333333333,80,2,0
258720,170.210271,227,0.14934188124999404,45,A2.75,80,2,0
258720,170.210271,227,0.14934188124999404,52,E3.333333333333333,80,2,0
259200,170.52606,227,0.14934188124999404,47,B2.9166666666666665,80,2,0
259200,170.52606,227,0.14934188124999404,54,F3.5#,80,2,0
259920,170.9997435,227,0.14934188124999404,47,B2.9166666666666665,80,2,0
259920,170.9997435,227,0.14934188124999404,54,F3.5#,80,2,0
260640,171.473427,227,0.14934188124999404,47,B2.9166666666666665,80,2,0
260640,171.473427,227,0.14934188124999404,54,F3.5#,80,2,0
276480,181.894464,227,0.14934188124999404,56,G3.666666666666667#,80,2,0
276480,181.894464,227,0.14934188124999404,61,C4.083333333333333#,80,2,0
277200,182.3681475,227,0.14934188124999404,56,G3.666666666666667#,80,2,0
277200,182.3681475,227,0.14934188124999404,61,C4.083333333333333#,80,2,0
277920,182.841831,227,0.14934188124999404,56,G3.666666666666667#,80,2,0
277920,182.841831,227,0.14934188124999404,61,C4.083333333333333#,80,2,0
278400,183.15762,227,0.14934188124999404,54,F3.5#,80,2,0
278400,183.15762,227,0.14934188124999404,61,C4.083333333333333#,80,2,0
279120,183.6313035,227,0.14934188124999404,54,F3.5#,80,2,0
279120,183.6313035,227,0.14934188124999404,61,C4.083333333333333#,80,2,0
279840,184.104987,227,0.14934188124999404,54,F3.5#,80,2,0
279840,184.104987,227,0.14934188124999404,61,C4.083333333333333#,80,2,0
280320,184.420776,227,0.14934188124999404,57,A3.75,80,2,0
280320,184.420776,227,0.14934188124999404,61,C4.083333333333333#,80,2,0
281040,184.8944595,227,0.14934188124999404,57,A3.75,80,2,0
281040,184.8944595,227,0.14934188124999404,61,C4.083333333333333#,80,2,0
281760,185.368143,227,0.14934188124999404,57,A3.75,80,2,0
281760,185.368143,227,0.14934188124999404,61,C4.083333333333333#,80,2,0
282240,185.683932,227,0.14934188124999404,54,F3.5#,80,2,0
282240,185.683932,227,0.14934188124999404,59,B3.916666666666667,80,2,0
282960,186.1576155,227,0.14934188124999404,54,F3.5#,80,2,0
282960,186.1576155,227,0.14934188124999404,59,B3.916666666666667,80,2,0
283680,186.631299,227,0.14934188124999404,54,F3.5#,80,2,0
283680,186.631299,227,0.14934188124999404,59,B3.916666666666667,80,2,0
284160,186.947088,227,0.14934188124999404,56,G3.666666666666667#,80,2,0
284160,186.947088,227,0.14934188124999404,61,C4.083333333333333#,80,2,0
284880,187.4207715,227,0.14934188124999404,56,G3.666666666666667#,80,2,0
284880,187.4207715,227,0.14934188124999404,61,C4.083333333333333#,80,2,0
285600,187.894455,227,0.14934188124999404,56,G3.666666666666667#,80,2,0
285600,187.894455,227,0.14934188124999404,61,C4.083333333333333#,80,2,0
286080,188.210244,227,0.14934188124999404,54,F3.5#,80,2,0
286080,188.210244,227,0.14934188124999404,61,C4.083333333333333#,80,2,0
286800,188.6839275,227,0.14934188124999404,54,F3.5#,80,2,0
286800,188.6839275,227,0.14934188124999404,61,C4.083333333333333#,80,2,0
287520,189.157611,227,0.14934188124999404,54,F3.5#,80,2,0
287520,189.157611,227,0.14934188124999404,61,C4.083333333333333#,80,2,0
288000,189.4734,227,0.14934188124999404,57,A3.75,80,2,0
288000,189.4734,227,0.14934188124999404,61,C4.083333333333333#,80,2,0
288720,189.9470835,227,0.14934188124999404,57,A3.75,80,2,0
288720,189.9470835,227,0.14934188124999404,61,C4.083333333333333#,80,2,0
289440,190.420767,227,0.14934188124999404,57,A3.75,80,2,0
289440,190.420767,227,0.14934188124999404,61,C4.083333333333333#,80,2,0
289920,190.736556,227,0.14934188124999404,54,F3.5#,80,2,0
289920,190.736556,227,0.14934188124999404,59,B3.916666666666667,80,2,0
290640,191.2102395,227,0.14934188124999404,54,F3.5#,80,2,0
290640,191.2102395,227,0.14934188124999404,59,B3.916666666666667,80,2,0
291360,191.683923,227,0.14934188124999404,54,F3.5#,80,2,0
291360,191.683923,227,0.14934188124999404,59,B3.916666666666667,80,2,0
295680,194.526024,227,0.14934188124999404,49,C3.083333333333333#,80,2,0
295680,194.526024,227,0.14934188124999404,56,G3.666666666666667#,80,2,0
296400,194.9997075,227,0.14934188124999404,49,C3.083333333333333#,80,2,0
296400,194.9997075,227,0.14934188124999404,56,G3.666666666666667#,80,2,0
297120,195.473391,227,0.14934188124999404,49,C3.083333333333333#,80,2,0
297120,195.473391,227,0.14934188124999404,56,G3.666666666666667#,80,2,0
297600,195.78918,227,0.14934188124999404,42,F2.5#,80,2,0
297600,195.78918,227,0.14934188124999404,49,C3.083333333333333#,80,2,0
298320,196.2628635,227,0.14934188124999404,42,F2.5#,80,2,0
298320,196.2628635,227,0.14934188124999404,49,C3.083333333333333#,80,2,0
299040,196.736547,227,0.14934188124999404,42,F2.5#,80,2,0
299040,196.736547,227,0.14934188124999404,49,C3.083333333333333#,80,2,0
299520,197.052336,227,0.14934188124999404,45,A2.75,80,2,0
299520,197.052336,227,0.14934188124999404,52,E3.333333333333333,80,2,0
300240,197.5260195,227,0.14934188124999404,45,A2.75,80,2,0
300240,197.5260195,227,0.14934188124999404,52,E3.333333333333333,80,2,0
300960,197.999703,227,0.14934188124999404,45,A2.75,80,2,0
300960,197.999703,227,0.14934188124999404,52,E3.333333333333333,80,2,0
301440,198.315492,227,0.14934188124999404,47,B2.9166666666666665,80,2,0
301440,198.315492,227,0.14934188124999404,54,F3.5#,80,2,0
302160,198.7891755,227,0.14934188124999404,47,B2.9166666666666665,80,2,0
302160,198.7891755,227,0.14934188124999404,54,F3.5#,80,2,0
302880,199.262859,227,0.14934188124999404,47,B2.9166666666666665,80,2,0
302880,199.262859,227,0.14934188124999404,54,F3.5#,80,2,0
303360,199.578648,227,0.14934188124999404,49,C3.083333333333333#,80,2,0
303360,199.578648,227,0.14934188124999404,56,G3.666666666666667#,80,2,0
304080,200.0523315,227,0.14934188124999404,49,C3.083333333333333#,80,2,0
304080,200.0523315,227,0.14934188124999404,56,G3.666666666666667#,80,2,0
304800,200.526015,227,0.14934188124999404,49,C3.083333333333333#,80,2,0
304800,200.526015,227,0.14934188124999404,56,G3.666666666666667#,80,2,0
305280,200.841804,227,0.14934188124999404,42,F2.5#,80,2,0
305280,200.841804,227,0.14934188124999404,49,C3.083333333333333#,80,2,0
306000,201.3154875,227,0.14934188124999404,42,F2.5#,80,2,0
306000,201.3154875,227,0.14934188124999404,49,C3.083333333333333#,80,2,0
306720,201.789171,227,0.14934188124999404,42,F2.5#,80,2,0
306720,201.789171,227,0.14934188124999404,49,C3.083333333333333#,80,2,0
307200,202.10496,227,0.14934188124999404,45,A2.75,80,2,0
307200,202.10496,227,0.14934188124999404,52,E3.333333333333333,80,2,0
307920,202.5786435,227,0.14934188124999404,45,A2.75,80,2,0
307920,202.5786435,227,0.14934188124999404,52,E3.333333333333333,80,2,0
308640,203.052327,227,0.14934188124999404,45,A2.75,80,2,0
308640,203.052327,227,0.14934188124999404,52,E3.333333333333333,80,2,0
309120,203.368116,227,0.14934188124999404,47,B2.9166666666666665,80,2,0
309120,203.368116,227,0.14934188124999404,54,F3.5#,80,2,0
309840,203.8417995,227,0.14934188124999404,47,B2.9166666666666665,80,2,0
309840,203.8417995,227,0.14934188124999404,54,F3.5#,80,2,0
310560,204.315483,227,0.14934188124999404,47,B2.9166666666666665,80,2,0
310560,204.315483,227,0.14934188124999404,54,F3.5#,80,2,0
311040,204.631272,227,0.14934188124999404,49,C3.083333333333333#,80,2,0
311040,204.631272,227,0.14934188124999404,56,G3.666666666666667#,80,2,0
311760,205.1049555,227,0.14934188124999404,49,C3.083333333333333#,80,2,0
311760,205.1049555,227,0.14934188124999404,56,G3.666666666666667#,80,2,0
312480,205.578639,227,0.14934188124999404,49,C3.083333333333333#,80,2,0
312480,205.578639,227,0.14934188124999404,56,G3.666666666666667#,80,2,0
312960,205.894428,227,0.14934188124999404,42,F2.5#,80,2,0
312960,205.894428,227,0.14934188124999404,49,C3.083333333333333#,80,2,0
313680,206.3681115,227,0.14934188124999404,42,F2.5#,80,2,0
313680,206.3681115,227,0.14934188124999404,49,C3.083333333333333#,80,2,0
314400,206.841795,227,0.14934188124999404,42,F2.5#,80,2,0
314400,206.841795,227,0.14934188124999404,49,C3.083333333333333#,80,2,0
314880,207.157584,227,0.14934188124999404,45,A2.75,80,2,0
314880,207.157584,227,0.14934188124999404,52,E3.333333333333333,80,2,0
315600,207.6312675,227,0.14934188124999404,45,A2.75,80,2,0
315600,207.6312675,227,0.14934188124999404,52,E3.333333333333333,80,2,0
316320,208.104951,227,0.14934188124999404,45,A2.75,80,2,0
316320,208.104951,227,0.14934188124999404,52,E3.333333333333333,80,2,0
316800,208.42074,227,0.14934188124999404,47,B2.9166666666666665,80,2,0
316800,208.42074,227,0.14934188124999404,54,F3.5#,80,2,0
317520,208.8944235,227,0.14934188124999404,47,B2.9166666666666665,80,2,0
317520,208.8944235,227,0.14934188124999404,54,F3.5#,80,2,0
318240,209.368107,227,0.14934188124999404,47,B2.9166666666666665,80,2,0
318240,209.368107,227,0.14934188124999404,54,F3.5#,80,2,0
318720,209.683896,227,0.14934188124999404,49,C3.083333333333333#,80,2,0
318720,209.683896,227,0.14934188124999404,56,G3.666666666666667#,80,2,0
319440,210.1575795,227,0.14934188124999404,49,C3.083333333333333#,80,2,0
319440,210.1575795,227,0.14934188124999404,56,G3.666666666666667#,80,2,0
320160,210.631263,227,0.14934188124999404,49,C3.083333333333333#,80,2,0
320160,210.631263,227,0.14934188124999404,56,G3.666666666666667#,80,2,0
320640,210.947052,227,0.14934188124999404,42,F2.5#,80,2,0
320640,210.947052,227,0.14934188124999404,49,C3.083333333333333#,80,2,0
321360,211.4207355,227,0.14934188124999404,42,F2.5#,80,2,0
321360,211.4207355,227,0.14934188124999404,49,C3.083333333333333#,80,2,0
322080,211.894419,227,0.14934188124999404,42,F2.5#,80,2,0
322080,211.894419,227,0.14934188124999404,49,C3.083333333333333#,80,2,0
322560,212.210208,227,0.14934188124999404,45,A2.75,80,2,0
322560,212.210208,227,0.14934188124999404,52,E3.333333333333333,80,2,0
323280,212.6838915,227,0.14934188124999404,45,A2.75,80,2,0
323280,212.6838915,227,0.14934188124999404,52,E3.333333333333333,80,2,0
324000,213.157575,227,0.14934188124999404,45,A2.75,80,2,0
324000,213.157575,227,0.14934188124999404,52,E3.333333333333333,80,2,0
324480,213.473364,227,0.14934188124999404,47,B2.9166666666666665,80,2,0
324480,213.473364,227,0.14934188124999404,54,F3.5#,80,2,0
325200,213.9470475,227,0.14934188124999404,47,B2.9166666666666665,80,2,0
325200,213.9470475,227,0.14934188124999404,54,F3.5#,80,2,0
325920,214.420731,227,0.14934188124999404,47,B2.9166666666666665,80,2,0
325920,214.420731,227,0.14934188124999404,54,F3.5#,80,2,0
326400,214.73652,227,0.14934188124999404,49,C3.083333333333333#,80,2,0
326400,214.73652,227,0.14934188124999404,56,G3.666666666666667#,80,2,0
327120,215.2102035,227,0.14934188124999404,49,C3.083333333333333#,80,2,0
327120,215.2102035,227,0.14934188124999404,56,G3.666666666666667#,80,2,0
327840,215.683887,227,0.14934188124999404,49,C3.083333333333333#,80,2,0
327840,215.683887,227,0.14934188124999404,56,G3.666666666666667#,80,2,0
328320,215.999676,227,0.14934188124999404,42,F2.5#,80,2,0
328320,215.999676,227,0.14934188124999404,49,C3.083333333333333#,80,2,0
329040,216.4733595,227,0.14934188124999404,42,F2.5#,80,2,0
329040,216.4733595,227,0.14934188124999404,49,C3.083333333333333#,80,2,0
329760,216.947043,227,0.14934188124999404,42,F2.5#,80,2,0
329760,216.947043,227,0.14934188124999404,49,C3.083333333333333#,80,2,0
330240,217.262832,227,0.14934188124999404,45,A2.75,80,2,0
330240,217.262832,227,0.14934188124999404,52,E3.333333333333333,80,2,0
330960,217.7365155,227,0.14934188124999404,45,A2.75,80,2,0
330960,217.7365155,227,0.14934188124999404,52,E3.333333333333333,80,2,0
331680,218.210199,227,0.14934188124999404,45,A2.75,80,2,0
331680,218.210199,227,0.14934188124999404,52,E3.333333333333333,80,2,0
332160,218.525988,227,0.14934188124999404,47,B2.9166666666666665,80,2,0
332160,218.525988,227,0.14934188124999404,54,F3.5#,80,2,0
332880,218.9996715,227,0.14934188124999404,47,B2.9166666666666665,80,2,0
332880,218.9996715,227,0.14934188124999404,54,F3.5#,80,2,0
333600,219.473355,227,0.14934188124999404,47,B2.9166666666666665,80,2,0
333600,219.473355,227,0.14934188124999404,54,F3.5#,80,2,0
334080,219.789144,227,0.14934188124999404,49,C3.083333333333333#,80,2,0
334080,219.789144,227,0.14934188124999404,56,G3.666666666666667#,80,2,0
334800,220.2628275,227,0.14934188124999404,49,C3.083333333333333#,80,2,0
334800,220.2628275,227,0.14934188124999404,56,G3.666666666666667#,80,2,0
335520,220.736511,227,0.14934188124999404,49,C3.083333333333333#,80,2,0
335520,220.736511,227,0.14934188124999404,56,G3.666666666666667#,80,2,0
336000,221.0523,227,0.14934188124999404,42,F2.5#,80,2,0
336000,221.0523,227,0.14934188124999404,49,C3.083333333333333#,80,2,0
336720,221.5259835,227,0.14934188124999404,42,F2.5#,80,2,0
336720,221.5259835,227,0.14934188124999404,49,C3.083333333333333#,80,2,0
337440,221.999667,227,0.14934188124999404,42,F2.5#,80,2,0
337440,221.999667,227,0.14934188124999404,49,C3.083333333333333#,80,2,0
337920,222.315456,227,0.14934188124999404,45,A2.75,80,2,0
337920,222.315456,227,0.14934188124999404,52,E3.333333333333333,80,2,0
338640,222.7891395,227,0.14934188124999404,45,A2.75,80,2,0
338640,222.7891395,227,0.14934188124999404,52,E3.333333333333333,80,2,0
339360,223.262823,227,0.14934188124999404,45,A2.75,80,2,0
339360,223.262823,227,0.14934188124999404,52,E3.333333333333333,80,2,0
339840,223.578612,227,0.14934188124999404,47,B2.9166666666666665,80,2,0
339840,223.578612,227,0.14934188124999404,54,F3.5#,80,2,0
340560,224.0522955,227,0.14934188124999404,47,B2.9166666666666665,80,2,0
340560,224.0522955,227,0.14934188124999404,54,F3.5#,80,2,0
341280,224.525979,227,0.14934188124999404,47,B2.9166666666666665,80,2,0
341280,224.525979,227,0.14934188124999404,54,F3.5#,80,2,0
341760,224.841768,227,0.14934188124999404,49,C3.083333333333333#,80,2,0
341760,224.841768,227,0.14934188124999404,56,G3.666666666666667#,80,2,0
342480,225.3154515,227,0.14934188124999404,49,C3.083333333333333#,80,2,0
342480,225.3154515,227,0.14934188124999404,56,G3.666666666666667#,80,2,0
343200,225.789135,227,0.14934188124999404,49,C3.083333333333333#,80,2,0
343200,225.789135,227,0.14934188124999404,56,G3.666666666666667#,80,2,0
343680,226.104924,227,0.14934188124999404,42,F2.5#,80,2,0
343680,226.104924,227,0.14934188124999404,49,C3.083333333333333#,80,2,0
344400,226.5786075,227,0.14934188124999404,42,F2.5#,80,2,0
344400,226.5786075,227,0.14934188124999404,49,C3.083333333333333#,80,2,0
345120,227.052291,227,0.14934188124999404,42,F2.5#,80,2,0
345120,227.052291,227,0.14934188124999404,49,C3.083333333333333#,80,2,0
345600,227.36808,227,0.14934188124999404,45,A2.75,80,2,0
345600,227.36808,227,0.14934188124999404,52,E3.333333333333333,80,2,0
346320,227.8417635,227,0.14934188124999404,45,A2.75,80,2,0
346320,227.8417635,227,0.14934188124999404,52,E3.333333333333333,80,2,0
347040,228.315447,227,0.14934188124999404,45,A2.75,80,2,0
347040,228.315447,227,0.14934188124999404,52,E3.333333333333333,80,2,0
347520,228.631236,227,0.14934188124999404,47,B2.9166666666666665,80,2,0
347520,228.631236,227,0.14934188124999404,54,F3.5#,80,2,0
348240,229.1049195,227,0.14934188124999404,47,B2.9166666666666665,80,2,0
348240,229.1049195,227,0.14934188124999404,54,F3.5#,80,2,0
348960,229.578603,227,0.14934188124999404,47,B2.9166666666666665,80,2,0
348960,229.578603,227,0.14934188124999404,54,F3.5#,80,2,0
349440,229.894392,227,0.14934188124999404,49,C3.083333333333333#,80,2,0
349440,229.894392,227,0.14934188124999404,56,G3.666666666666667#,80,2,0
350160,230.3680755,227,0.14934188124999404,49,C3.083333333333333#,80,2,0
350160,230.3680755,227,0.14934188124999404,56,G3.666666666666667#,80,2,0
350880,230.841759,227,0.14934188124999404,49,C3.083333333333333#,80,2,0
350880,230.841759,227,0.14934188124999404,56,G3.666666666666667#,80,2,0
351360,231.157548,227,0.14934188124999404,42,F2.5#,80,2,0
351360,231.157548,227,0.14934188124999404,49,C3.083333333333333#,80,2,0
352080,231.6312315,227,0.14934188124999404,42,F2.5#,80,2,0
352080,231.6312315,227,0.14934188124999404,49,C3.083333333333333#,80,2,0
352800,232.104915,227,0.14934188124999404,42,F2.5#,80,2,0
352800,232.104915,227,0.14934188124999404,49,C3.083333333333333#,80,2,0
353280,232.420704,227,0.14934188124999404,45,A2.75,80,2,0
353280,232.420704,227,0.14934188124999404,52,E3.333333333333333,80,2,0
354000,232.8943875,227,0.14934188124999404,45,A2.75,80,2,0
354000,232.8943875,227,0.14934188124999404,52,E3.333333333333333,80,2,0
354720,233.368071,227,0.14934188124999404,45,A2.75,80,2,0
354720,233.368071,227,0.14934188124999404,52,E3.333333333333333,80,2,0
355200,233.68386,341,0.2243417687500119,39,D2.25#,80,2,0
355200,233.68386,341,0.2243417687500119,42,F2.5#,80,2,0
355200,233.68386,341,0.2243417687500119,47,B2.9166666666666665,80,2,0
